<?xml version="1.0" standalone="no"?>
<!DOCTYPE svg PUBLIC "-//W3C//DTD SVG 20010904//EN"
 "http://www.w3.org/TR/2001/REC-SVG-20010904/DTD/svg10.dtd">
<svg version="1.0" xmlns="http://www.w3.org/2000/svg"
 width="1653.000000pt" height="1653.000000pt" viewBox="0 0 1653.000000 1653.000000"
 preserveAspectRatio="xMidYMid meet">
<metadata>
Created by potrace 1.14, written by Peter Selinger 2001-2017
</metadata>
<g transform="translate(0.000000,1653.000000) scale(0.100000,-0.100000)"
fill="#000000" stroke="none">
<path d="M2065 10990 c2 -4 -15 -6 -38 -5 -23 1 -46 0 -52 -3 -12 -7 -37 -11
-85 -15 -19 -1 -41 -8 -48 -15 -8 -7 -17 -10 -22 -7 -8 5 -139 -37 -173 -56
-10 -5 -23 -7 -29 -3 -7 4 -8 3 -4 -4 4 -7 2 -13 -3 -13 -20 -3 -26 -4 -58
-19 -18 -8 -33 -18 -33 -22 0 -4 -7 -5 -15 -2 -8 4 -15 1 -15 -4 0 -6 -10 -14
-22 -18 -13 -3 -35 -15 -50 -26 -16 -11 -33 -16 -39 -12 -7 4 -9 3 -6 -3 4 -5
-6 -16 -21 -24 -15 -8 -29 -16 -32 -20 -3 -3 -23 -16 -45 -29 -22 -13 -45 -31
-52 -40 -7 -8 -13 -11 -13 -7 0 8 -13 -1 -51 -35 -10 -10 -23 -18 -27 -18 -5
0 -18 -10 -30 -22 -30 -33 -52 -50 -52 -41 0 4 -5 0 -11 -10 -6 -10 -29 -31
-51 -47 -23 -17 -37 -30 -33 -30 5 0 -5 -11 -23 -23 -17 -13 -30 -26 -27 -29
3 -2 -6 -11 -20 -18 -14 -7 -25 -17 -25 -22 0 -5 -10 -19 -23 -32 -43 -44 -82
-91 -107 -128 -14 -21 -28 -38 -32 -38 -5 0 -8 -7 -8 -15 0 -8 -4 -15 -10 -15
-5 0 -10 -7 -10 -15 0 -8 -4 -15 -10 -15 -5 0 -10 -6 -10 -13 0 -8 -9 -22 -20
-32 -11 -10 -17 -22 -14 -26 3 -5 0 -9 -5 -9 -6 0 -10 -3 -9 -7 1 -5 -14 -36
-35 -71 -20 -35 -35 -68 -31 -73 3 -5 -1 -12 -10 -15 -8 -3 -13 -14 -11 -25 2
-11 0 -17 -6 -14 -5 4 -9 -1 -9 -9 0 -8 -5 -27 -12 -43 -6 -15 -13 -37 -15
-48 -8 -37 -11 -50 -13 -50 -1 0 -4 -11 -6 -25 -2 -13 -10 -28 -17 -32 -9 -6
-9 -8 2 -8 9 0 10 -4 4 -12 -5 -7 -10 -26 -12 -43 -2 -16 -8 -33 -13 -36 -6
-4 -5 -9 3 -12 10 -4 10 -6 2 -6 -7 -1 -13 -6 -13 -12 0 -5 6 -7 13 -3 9 6 9
4 1 -7 -14 -17 -16 -117 -3 -125 5 -3 4 -14 -2 -26 -8 -15 -8 -19 0 -14 7 5
11 -5 12 -28 3 -67 7 -86 34 -139 8 -15 10 -25 4 -22 -5 4 3 -17 18 -47 15
-29 31 -54 36 -56 4 -2 7 -9 7 -15 0 -20 113 -147 130 -147 6 0 10 -3 10 -8 0
-4 18 -18 40 -32 22 -14 40 -29 40 -34 0 -5 3 -7 6 -3 4 3 21 -1 38 -10 17
-10 35 -16 40 -15 5 2 13 -2 17 -9 4 -7 16 -14 26 -15 10 -1 29 -5 43 -9 14
-4 35 -8 47 -9 12 -1 25 -5 29 -9 4 -3 16 -2 27 4 14 8 18 8 13 0 -10 -15 7
-14 22 1 7 7 12 8 12 2 0 -6 7 -11 15 -11 8 0 15 5 15 10 0 5 7 4 15 -3 10 -8
15 -9 15 -1 0 6 13 9 30 7 17 -2 30 1 30 6 0 6 6 8 14 5 8 -3 16 -2 18 3 2 5
14 10 28 12 14 2 36 10 50 18 14 8 27 15 30 15 17 1 70 29 70 36 0 5 3 8 8 7
12 -3 62 24 62 34 0 4 6 8 14 8 7 0 25 11 40 25 14 13 26 22 26 19 0 -3 6 1
14 8 7 7 36 35 65 61 28 27 51 53 51 58 0 6 5 7 10 4 6 -3 10 -1 10 6 0 6 10
20 22 30 11 11 17 19 13 19 -5 0 1 9 13 20 12 12 22 27 22 35 0 8 5 15 11 15
5 0 7 5 4 10 -3 6 -2 10 3 10 5 0 12 8 16 18 3 9 17 36 30 60 13 23 23 42 21
42 -2 0 2 12 10 27 8 15 12 30 9 35 -3 4 -1 8 3 8 11 0 15 29 14 115 -1 100
-2 115 -13 115 -5 0 -7 4 -4 8 7 12 -37 96 -65 124 -39 38 -99 69 -143 72 -22
2 -43 5 -46 6 -3 1 -9 1 -15 0 -5 -1 -39 -4 -73 -6 -77 -6 -109 -27 -86 -58 7
-11 17 -17 20 -13 4 3 15 2 25 -4 13 -6 19 -6 19 1 0 5 5 10 11 10 5 0 7 -5 3
-12 -5 -8 -3 -8 7 -2 16 10 89 12 89 3 0 -4 12 -6 28 -6 35 1 118 -65 106 -85
-3 -4 1 -11 9 -14 8 -3 13 -16 11 -30 -1 -13 1 -24 5 -24 8 0 7 -48 -2 -57 -4
-3 1 -15 10 -26 10 -11 12 -17 6 -13 -7 4 -13 4 -14 -1 -6 -75 -10 -97 -16
-102 -5 -3 -8 -13 -8 -21 0 -8 -3 -18 -7 -21 -5 -3 -10 -14 -12 -25 -2 -11
-13 -36 -24 -56 -11 -20 -18 -39 -15 -42 4 -3 1 -6 -5 -6 -7 0 -12 -7 -12 -15
0 -9 -7 -18 -16 -22 -8 -3 -13 -11 -10 -18 3 -8 -2 -16 -10 -19 -8 -3 -14 -12
-14 -20 0 -9 -9 -20 -21 -26 -11 -7 -18 -14 -16 -17 9 -9 -115 -143 -133 -143
-4 0 -11 -7 -14 -16 -3 -8 -10 -13 -15 -10 -5 3 -12 -1 -15 -10 -3 -8 -10 -12
-16 -9 -6 3 -13 -1 -16 -10 -4 -9 -13 -14 -20 -11 -8 3 -14 1 -14 -4 0 -10
-56 -37 -94 -45 -55 -11 -67 -14 -76 -20 -6 -3 -10 0 -10 7 0 9 -3 9 -8 2 -10
-14 -123 -15 -141 0 -12 9 -13 8 -7 -2 7 -11 4 -12 -12 -3 -11 6 -32 11 -47
11 -15 0 -24 4 -20 10 3 6 -2 10 -12 10 -23 0 -73 22 -73 33 0 4 -6 7 -14 7
-7 0 -27 13 -44 29 -16 16 -33 27 -36 24 -3 -4 -6 1 -6 10 0 10 -5 17 -11 17
-5 0 -7 5 -4 10 3 6 0 10 -8 10 -8 0 -17 8 -21 18 -7 21 -28 55 -40 63 -5 4
-5 12 -2 18 4 6 2 11 -3 11 -6 0 -11 8 -11 18 0 10 -4 22 -9 28 -5 5 -12 23
-15 39 -7 42 -15 90 -20 123 -2 15 -5 32 -6 37 -1 6 -1 12 0 15 6 17 5 50 -2
50 -5 0 -4 9 2 19 7 14 6 21 -3 24 -9 3 -9 8 -1 18 9 12 14 43 17 111 1 9 4
15 8 13 3 -2 6 12 7 31 1 19 5 40 9 47 4 7 9 21 10 31 2 11 8 25 14 33 9 9 8
13 0 13 -8 0 -7 5 3 15 8 9 13 22 10 30 -4 8 -2 15 4 15 5 0 13 16 16 35 4 19
11 35 17 35 6 0 7 5 4 10 -3 6 4 24 15 41 12 16 20 33 17 36 -3 3 -2 10 4 17
20 24 57 85 63 104 4 11 13 23 21 26 8 3 15 12 15 21 0 8 5 15 10 15 6 0 10 7
10 15 0 8 5 15 12 15 6 0 9 3 5 6 -3 3 2 14 11 23 26 27 57 65 60 73 2 4 25
30 52 58 28 28 50 55 50 60 0 5 9 12 20 15 11 4 18 10 16 14 -6 9 30 41 46 41
6 0 8 3 5 7 -4 3 7 16 23 28 16 12 27 25 23 28 -3 4 1 7 10 7 9 0 17 5 17 10
0 6 5 10 10 10 6 0 22 10 35 23 28 26 37 33 90 72 22 17 43 34 47 40 4 5 8 7
8 3 0 -6 86 47 116 71 20 16 54 32 54 24 0 -4 7 2 15 13 8 10 15 15 15 11 0
-5 7 -2 15 7 9 8 23 12 32 9 10 -4 14 -2 10 4 -6 9 68 48 86 44 4 0 7 4 7 9 0
6 6 10 13 9 6 0 23 2 37 7 14 4 27 6 29 5 2 -2 7 3 11 10 7 11 17 13 63 18 5
1 6 5 3 9 -2 4 12 7 32 6 20 -1 43 3 49 8 7 6 20 8 28 4 8 -3 15 -2 15 2 0 9
124 6 148 -3 9 -4 30 -9 46 -10 16 -2 31 -7 35 -11 3 -5 12 -10 20 -12 36 -8
120 -84 121 -109 0 -7 3 -13 8 -13 4 0 13 -9 20 -21 11 -17 11 -20 0 -13 -9 6
-9 3 2 -10 8 -10 16 -27 17 -39 2 -11 10 -33 17 -49 8 -15 10 -28 5 -28 -6 0
-6 -7 -1 -17 4 -10 7 -36 7 -58 0 -22 4 -43 10 -47 6 -5 6 -8 0 -8 -6 0 -10
-33 -10 -80 0 -44 -2 -80 -5 -80 -3 0 -5 -16 -5 -35 1 -19 -3 -35 -8 -35 -5 0
-7 -7 -4 -15 4 -8 0 -36 -7 -63 -7 -28 -12 -59 -11 -71 1 -11 -1 -21 -5 -21
-4 0 -7 -6 -8 -12 -4 -51 -15 -93 -25 -100 -7 -4 -8 -8 -3 -8 5 0 2 -8 -5 -17
-8 -9 -9 -14 -3 -10 6 3 2 -19 -9 -51 -10 -31 -20 -70 -21 -85 -1 -16 -7 -32
-12 -35 -5 -4 -9 -14 -9 -22 0 -8 -4 -18 -10 -22 -5 -4 -10 -13 -10 -20 -1
-26 -29 -118 -37 -118 -4 0 -5 -7 -2 -15 4 -8 1 -15 -6 -15 -7 0 -10 -6 -7
-14 3 -8 3 -17 -1 -21 -4 -4 -7 -10 -8 -13 0 -4 -5 -19 -11 -33 -6 -14 -17
-44 -24 -67 -7 -23 -16 -42 -21 -42 -5 0 -7 -4 -4 -9 8 -12 -4 -42 -14 -36 -5
3 -7 -3 -5 -12 1 -10 -3 -24 -9 -32 -9 -12 -8 -13 4 -7 13 6 13 6 0 -6 -9 -7
-15 -20 -15 -28 0 -8 -2 -17 -6 -20 -4 -3 -9 -14 -11 -25 -1 -11 -7 -23 -11
-26 -4 -3 -9 -16 -10 -27 -1 -12 -5 -22 -9 -22 -4 0 -8 -9 -8 -20 0 -11 -5
-20 -12 -20 -6 0 -8 -3 -5 -7 4 -3 0 -17 -9 -31 -9 -13 -11 -21 -4 -17 7 4 4
-4 -5 -18 -9 -14 -18 -33 -19 -42 -1 -9 -7 -20 -12 -23 -5 -4 -9 -11 -10 -17
-3 -24 -17 -55 -26 -55 -5 0 -7 -4 -3 -9 6 -11 -24 -82 -40 -93 -6 -5 -6 -8 0
-8 5 0 4 -5 -3 -12 -7 -7 -12 -20 -12 -30 0 -10 -4 -18 -10 -18 -5 0 -10 -9
-10 -19 0 -11 -5 -23 -10 -26 -5 -3 -10 -15 -10 -26 0 -10 -4 -19 -10 -19 -5
0 -10 -7 -10 -15 0 -8 -4 -15 -10 -15 -5 0 -7 -7 -4 -15 4 -8 1 -15 -5 -15 -6
0 -10 -3 -9 -7 2 -9 -33 -85 -43 -93 -6 -5 -22 -41 -23 -52 -1 -4 -9 -16 -18
-28 -10 -11 -15 -20 -12 -20 3 0 -4 -13 -15 -29 -12 -16 -21 -34 -21 -40 0 -6
-5 -11 -11 -11 -5 0 -7 -4 -4 -10 3 -5 1 -10 -4 -10 -6 0 -11 -7 -11 -15 0 -8
-4 -15 -9 -15 -10 0 -24 -38 -22 -60 1 -8 11 -22 21 -31 11 -9 16 -20 12 -23
-3 -4 6 -3 21 3 15 6 27 7 27 3 0 -4 9 -8 20 -8 11 0 20 3 20 6 0 3 12 6 28 7
24 2 118 43 98 43 -4 0 2 12 13 26 12 15 21 33 21 40 0 8 5 14 11 14 5 0 8 4
4 9 -3 5 -1 12 5 16 6 4 8 11 5 16 -4 5 0 12 9 15 8 3 13 14 11 25 -2 10 1 19
6 19 6 0 7 5 4 10 -3 6 1 13 9 16 9 3 13 10 10 15 -3 5 0 9 6 9 6 0 9 4 5 9
-7 12 15 61 28 61 6 0 7 3 4 6 -3 4 -1 16 5 28 7 11 13 23 13 26 0 3 11 26 23
52 13 26 20 53 16 59 -4 7 -3 9 3 6 7 -5 42 54 49 83 0 3 7 19 14 35 7 17 12
34 12 38 -1 4 4 10 12 13 8 3 12 12 9 20 -3 8 0 14 6 14 6 0 11 5 11 11 0 5
12 36 27 67 15 31 27 59 28 62 0 3 9 20 18 38 10 17 15 32 12 32 -4 0 1 7 9
16 9 8 14 20 11 25 -4 5 -2 9 3 9 6 0 13 11 16 25 4 15 11 23 17 19 7 -4 9 1
5 14 -4 11 -2 23 4 27 12 7 34 55 32 68 -1 4 2 7 8 7 5 0 10 6 10 14 0 7 7 19
15 26 9 7 13 15 11 18 -3 2 6 21 19 41 14 19 25 41 25 48 0 7 3 13 8 13 4 0
18 23 32 51 13 27 32 58 42 68 9 11 14 22 11 25 -4 3 -1 6 6 6 7 0 10 4 7 9
-3 5 4 20 17 33 12 14 23 32 25 39 2 8 8 16 13 17 5 2 9 8 9 14 0 6 11 26 26
45 14 18 22 33 18 33 -4 0 3 8 14 19 12 10 19 21 15 25 -3 3 -1 6 6 6 7 0 9 5
6 10 -3 6 -1 10 4 10 6 0 11 5 11 10 0 11 13 28 44 60 11 11 16 20 12 20 -6 0
20 37 79 115 8 10 15 23 15 28 0 4 5 5 10 2 6 -4 9 -2 8 3 -2 5 6 21 17 36 42
59 100 131 110 138 5 4 10 11 10 15 0 9 29 45 68 84 15 16 27 32 27 36 0 11
43 48 52 45 5 -1 7 1 5 6 -3 9 40 52 53 52 5 0 13 6 17 13 11 17 78 63 68 46
-8 -12 -6 -12 8 0 9 7 24 11 32 7 9 -3 13 -2 10 4 -7 11 -6 12 53 15 26 2 42
-2 42 -9 0 -7 3 -6 8 2 6 9 19 1 46 -28 20 -22 34 -40 30 -40 -3 0 -1 -6 5
-13 6 -8 13 -31 16 -53 3 -21 8 -45 10 -51 2 -7 1 -13 -3 -13 -4 0 -7 -30 -6
-67 1 -81 -4 -105 -20 -96 -7 4 -6 1 1 -9 7 -8 10 -17 8 -20 -3 -3 -7 -23 -8
-44 -1 -21 -6 -45 -10 -51 -5 -7 -4 -13 2 -13 6 0 8 -7 5 -15 -4 -8 -10 -12
-15 -9 -5 3 -9 0 -9 -5 0 -6 5 -11 11 -11 8 0 8 -4 2 -12 -6 -7 -9 -23 -8 -36
1 -13 -2 -25 -7 -28 -5 -3 -6 -14 -3 -25 4 -10 2 -19 -2 -19 -5 0 -10 -10 -10
-22 -2 -42 -7 -68 -13 -68 -3 0 -6 -12 -7 -27 -1 -26 -9 -65 -13 -70 -2 -2 -3
-11 -4 -20 -1 -10 -5 -24 -9 -30 -5 -7 -5 -17 -2 -23 3 -5 2 -10 -4 -10 -5 0
-8 -8 -6 -17 1 -10 -4 -30 -11 -44 -7 -15 -10 -30 -6 -33 3 -4 1 -10 -5 -14
-6 -4 -13 -21 -16 -37 -2 -17 -7 -37 -10 -45 -4 -8 -8 -24 -10 -35 -2 -11 -7
-28 -11 -37 -7 -15 -13 -41 -15 -61 -1 -5 -6 -5 -13 -1 -6 4 -8 3 -5 -3 4 -5
-4 -40 -18 -76 -13 -36 -21 -68 -18 -71 3 -3 -1 -8 -9 -11 -10 -4 -14 -14 -11
-26 3 -10 0 -19 -6 -19 -6 0 -11 -8 -11 -18 0 -10 -3 -22 -7 -26 -5 -4 -8 -11
-8 -14 -2 -22 -18 -51 -26 -47 -5 3 -6 0 -3 -8 3 -8 -6 -38 -19 -68 -63 -138
-70 -154 -66 -155 2 -1 -4 -11 -14 -21 -9 -11 -14 -23 -10 -26 3 -4 1 -7 -6
-7 -7 0 -10 -4 -7 -9 3 -5 -3 -20 -14 -33 -11 -14 -16 -28 -13 -32 3 -3 1 -6
-5 -6 -7 0 -12 -3 -11 -7 2 -16 -14 -53 -22 -53 -5 0 -9 -7 -9 -15 0 -8 -5
-15 -10 -15 -6 0 -9 -3 -8 -7 3 -15 -22 -63 -32 -63 -6 0 -8 -5 -4 -11 3 -6 2
-14 -3 -18 -5 -3 -17 -23 -26 -43 -10 -21 -23 -38 -29 -38 -6 0 -8 -3 -5 -7 4
-3 3 -11 -2 -17 -13 -16 -22 -68 -10 -61 5 4 9 -2 9 -12 0 -21 48 -53 69 -45
8 2 11 0 7 -6 -4 -6 2 -8 14 -5 11 3 23 10 26 15 3 5 12 4 20 -3 11 -9 14 -9
14 0 0 7 4 10 9 6 11 -6 104 84 109 105 2 8 10 22 18 31 8 9 11 19 7 22 -3 4
-1 7 6 7 7 0 10 4 6 9 -3 5 -1 12 5 16 6 4 8 11 5 16 -4 5 -1 9 5 9 7 0 10 5
8 12 -3 7 2 19 9 28 7 8 13 19 12 24 0 5 3 12 8 15 4 3 17 24 28 46 10 22 27
52 37 66 9 14 15 29 11 32 -3 4 2 9 11 13 9 3 13 10 10 15 -3 5 0 9 5 9 6 0
11 4 11 9 0 13 73 135 82 139 5 2 6 8 2 13 -3 5 0 9 6 9 10 0 35 48 32 63 -1
4 2 7 8 7 5 0 16 15 25 34 9 18 25 43 36 55 11 11 17 21 13 21 -4 0 1 9 11 20
10 11 15 20 11 20 -4 0 -1 7 6 15 30 33 38 45 38 55 0 5 5 10 12 10 6 0 8 3 5
7 -4 3 1 12 11 20 11 10 12 12 2 8 -8 -4 -6 1 5 10 11 9 20 19 20 23 1 11 116
186 132 199 8 6 13 13 11 15 -4 5 74 121 95 140 10 9 16 22 12 27 -3 6 1 11
10 11 9 0 14 4 11 8 -3 5 6 20 20 35 14 15 22 27 19 27 -3 0 3 8 13 18 9 10
26 31 37 46 11 16 32 42 47 60 15 17 36 42 47 55 12 13 21 28 21 33 0 5 5 6
10 3 6 -3 10 -1 10 5 0 11 32 48 158 178 45 47 82 90 82 95 0 6 3 8 6 4 6 -5
52 31 82 65 9 9 19 15 24 12 4 -3 8 -1 8 5 0 11 99 77 112 73 4 -1 8 5 8 13 0
9 6 12 15 9 8 -4 15 -2 15 3 0 5 6 10 13 11 6 1 30 4 52 6 49 6 82 -9 102 -47
10 -20 11 -27 2 -22 -8 6 -10 4 -4 -4 12 -21 11 -82 -2 -93 -10 -8 -10 -14 -2
-24 7 -9 8 -14 1 -14 -6 0 -9 -8 -8 -17 2 -10 -1 -21 -5 -24 -5 -3 -10 -17
-11 -32 -1 -15 -5 -27 -9 -27 -4 0 -10 -16 -13 -35 -4 -19 -12 -35 -18 -35 -6
0 -9 -3 -5 -6 3 -4 -2 -23 -13 -44 -11 -21 -16 -40 -13 -44 4 -3 1 -6 -5 -6
-7 0 -12 -6 -12 -12 0 -7 -13 -39 -29 -70 -16 -32 -27 -58 -24 -58 3 0 0 -6
-6 -13 -6 -8 -8 -17 -4 -20 3 -4 2 -7 -3 -7 -6 0 -18 -19 -28 -42 -19 -45 -27
-64 -75 -171 -17 -37 -27 -67 -23 -67 4 0 1 -4 -6 -9 -7 -4 -14 -14 -15 -22
-2 -8 -7 -21 -12 -29 -5 -8 -10 -22 -12 -30 -1 -8 -6 -16 -12 -18 -5 -2 -8 -9
-5 -17 3 -7 0 -16 -5 -20 -6 -3 -9 -11 -6 -16 4 -5 2 -9 -4 -9 -5 0 -12 -13
-16 -30 -4 -16 -10 -30 -14 -30 -4 0 -7 -10 -8 -22 -1 -11 -7 -24 -13 -28 -7
-4 -11 -10 -10 -14 2 -6 -11 -54 -20 -71 -4 -8 -7 -17 -15 -52 -4 -18 -11 -31
-15 -28 -3 2 -7 -1 -7 -8 -1 -18 -10 -57 -27 -109 -8 -25 -12 -49 -9 -52 4 -3
1 -6 -6 -6 -8 0 -11 -7 -7 -15 3 -8 1 -15 -4 -15 -6 0 -10 -16 -10 -36 0 -19
-3 -33 -7 -31 -5 3 -9 -9 -10 -26 -3 -34 -10 -72 -14 -72 -1 0 -3 -69 -4 -152
-1 -84 1 -153 5 -153 4 0 7 -6 8 -12 3 -50 59 -170 93 -199 10 -9 16 -19 12
-23 -3 -3 -2 -6 3 -6 6 0 19 -8 30 -18 18 -17 93 -66 104 -68 3 0 22 -8 42
-17 21 -10 44 -17 53 -17 8 0 15 -3 15 -7 0 -5 10 -9 23 -9 30 -2 102 -12 102
-14 0 -8 103 -5 113 3 6 5 12 6 12 3 0 -4 6 -1 14 6 14 14 10 42 -5 32 -5 -3
-9 -2 -9 3 0 4 -18 8 -40 9 -22 0 -40 -4 -40 -9 0 -6 -5 -6 -12 -1 -7 5 -25 9
-40 8 -16 0 -28 3 -28 8 0 5 -5 6 -10 3 -14 -8 -52 4 -45 15 3 4 -3 6 -13 3
-11 -2 -26 3 -35 12 -9 8 -20 16 -24 17 -20 2 -33 11 -33 24 0 8 -4 14 -9 14
-15 0 -73 130 -68 151 3 10 1 19 -4 19 -5 0 -7 11 -5 25 3 14 1 25 -3 25 -4 0
-7 54 -7 120 0 66 3 120 7 120 4 0 6 9 4 20 -2 11 0 22 5 25 5 3 7 12 4 19 -3
8 -1 17 4 20 5 3 8 17 7 31 -2 14 0 25 5 25 4 0 8 10 9 23 1 40 4 57 11 57 4
0 7 8 7 18 0 33 3 43 12 38 4 -3 6 6 3 21 -3 16 0 29 9 34 8 4 14 20 13 36 0
15 8 43 18 61 10 19 13 30 7 26 -9 -5 -9 -3 -3 7 14 21 34 82 34 102 0 12 4
16 13 11 6 -4 9 -4 5 1 -4 4 -1 23 7 42 8 20 15 44 15 54 0 11 5 19 10 19 6 0
10 7 10 15 0 14 29 86 51 128 5 10 7 22 4 26 -3 5 2 12 10 15 8 3 14 9 13 13
0 4 4 21 10 36 7 16 12 33 12 38 0 5 5 9 10 9 6 0 9 3 8 8 -1 4 7 28 19 54 12
25 24 56 28 67 3 12 11 21 17 21 6 0 9 3 5 6 -3 3 15 47 41 97 25 51 46 94 47
97 0 3 6 15 13 28 7 12 9 22 5 22 -4 0 -1 5 7 10 8 5 15 13 16 17 0 4 9 26 19
48 10 22 17 46 16 53 -1 6 3 12 9 12 6 0 8 5 5 10 -3 6 -2 10 4 10 6 0 8 7 5
15 -4 8 -1 15 6 15 6 0 8 5 5 10 -4 6 -2 16 3 23 5 7 8 20 7 30 -2 9 0 17 4
17 8 0 9 1 15 82 2 31 7 61 11 67 3 6 2 11 -3 11 -5 0 -8 16 -7 35 1 19 -3 35
-8 35 -6 0 -7 3 -4 7 4 3 2 12 -5 20 -6 7 -8 16 -5 19 3 3 -8 18 -24 32 -56
52 -57 52 -126 57 -24 1 -43 -1 -43 -5 0 -5 -11 -7 -25 -5 -14 1 -25 -2 -25
-6 0 -5 -3 -8 -7 -8 -18 4 -72 -14 -68 -22 3 -4 -4 -6 -15 -4 -11 2 -20 1 -20
-4 0 -8 -91 -56 -103 -53 -4 1 -6 -2 -5 -7 2 -5 -1 -9 -5 -10 -4 0 -14 -6 -22
-13 -33 -30 -45 -38 -45 -32 0 3 -9 -4 -20 -17 -10 -13 -19 -21 -20 -17 0 4
-21 -14 -47 -39 -27 -25 -58 -52 -70 -60 -13 -9 -21 -19 -18 -23 3 -5 -4 -11
-15 -15 -11 -3 -20 -13 -20 -21 0 -8 -6 -13 -12 -12 -7 2 -12 -3 -10 -9 1 -7
-5 -13 -13 -13 -8 0 -15 -3 -15 -8 0 -7 -25 -37 -101 -119 -22 -24 -37 -43
-34 -43 3 0 -11 -16 -30 -37 -19 -20 -32 -40 -29 -45 3 -4 -2 -8 -10 -8 -9 0
-16 -4 -16 -9 0 -10 -51 -78 -92 -122 -14 -16 -23 -29 -20 -29 4 0 -1 -5 -11
-11 -9 -6 -15 -14 -12 -20 4 -5 -1 -9 -10 -9 -9 0 -14 -4 -10 -9 3 -5 -5 -17
-17 -26 -13 -8 -21 -18 -19 -21 1 -3 -11 -21 -27 -40 -17 -19 -28 -34 -25 -34
2 0 -12 -20 -31 -44 -20 -23 -36 -48 -36 -55 0 -7 -4 -10 -8 -7 -4 2 -14 -9
-21 -25 -7 -16 -17 -27 -22 -23 -5 3 -9 -4 -9 -15 0 -12 -4 -21 -8 -21 -5 0
-15 -11 -22 -25 -7 -13 -18 -22 -23 -18 -6 3 -7 1 -3 -5 3 -6 -1 -17 -9 -25
-8 -9 -15 -20 -15 -26 0 -6 -5 -11 -11 -11 -5 0 -8 -4 -5 -9 3 -5 -1 -11 -9
-15 -8 -3 -15 -12 -15 -20 0 -7 -7 -17 -16 -20 -8 -3 -13 -9 -11 -14 3 -4 -1
-16 -9 -27 -8 -10 -14 -15 -14 -10 0 5 -12 -14 -27 -43 -15 -29 -30 -52 -34
-52 -10 0 0 51 13 67 6 7 7 13 3 13 -4 0 -2 7 5 15 7 8 9 15 5 15 -4 0 -3 6 2
13 6 6 9 20 8 30 -2 9 1 15 6 11 5 -3 9 6 9 20 0 14 4 26 9 26 5 0 8 8 6 18
-1 9 2 22 7 29 5 7 7 16 4 22 -3 5 -1 11 4 13 6 2 13 17 16 33 3 16 11 33 17
37 9 6 8 8 -2 8 -12 0 -12 3 -3 12 7 7 12 20 12 30 0 10 5 18 11 18 6 0 9 6 6
13 -2 6 2 27 9 46 8 19 12 36 9 39 -2 2 0 13 6 24 6 11 12 27 14 36 10 51 31
118 37 122 4 3 6 16 3 28 -2 12 -1 22 3 22 4 0 8 8 9 18 7 66 9 78 14 82 4 3
9 16 10 30 2 14 9 28 14 32 6 5 5 8 -3 8 -8 0 -10 5 -5 13 9 14 15 43 16 75 1
12 3 22 7 22 13 0 18 306 5 334 -6 13 -5 17 3 13 10 -7 -23 63 -43 90 -42 58
-87 90 -136 98 -39 7 -95 10 -101 5 -3 -2 -26 -6 -69 -13 -14 -2 -40 -11 -57
-19 -23 -12 -33 -13 -43 -4 -9 8 -10 8 -5 -1 4 -7 -8 -18 -31 -29 -21 -10 -50
-26 -64 -35 -14 -10 -30 -15 -34 -11 -5 4 -5 2 -1 -5 3 -7 -2 -14 -13 -18 -23
-7 -141 -120 -141 -135 0 -6 -4 -9 -9 -5 -5 3 -12 -3 -15 -12 -4 -10 -20 -34
-37 -53 -17 -19 -45 -54 -62 -77 -17 -24 -34 -43 -39 -43 -5 0 -7 -4 -4 -8 3
-5 -6 -20 -20 -35 -13 -14 -24 -30 -24 -35 0 -5 -9 -17 -20 -27 -11 -10 -18
-20 -16 -23 3 -2 -7 -15 -21 -28 -14 -13 -22 -24 -17 -24 5 0 0 -7 -10 -15
-11 -8 -16 -15 -12 -15 6 0 -49 -86 -65 -100 -3 -3 -11 -20 -18 -37 -8 -18
-17 -33 -22 -33 -5 0 -9 -7 -9 -15 0 -8 -5 -15 -11 -15 -5 0 -7 -4 -4 -10 3
-5 1 -10 -5 -10 -6 0 -9 -4 -6 -9 4 -5 2 -11 -2 -13 -11 -4 -50 -69 -92 -153
-16 -33 -30 -55 -30 -50 0 6 -4 5 -8 -2 -4 -7 -13 -9 -21 -4 -8 6 -10 14 -5
22 7 12 11 27 16 67 1 6 6 12 11 12 5 0 7 6 4 14 -3 8 -2 16 4 18 5 2 12 16
15 33 3 16 10 35 16 42 6 7 8 13 4 13 -4 0 0 12 7 28 8 15 12 33 10 40 -3 6 0
12 7 12 6 0 8 5 5 10 -3 6 0 10 7 10 9 0 9 3 -2 10 -12 8 -12 10 -1 10 8 0 12
3 8 6 -3 4 0 22 8 41 8 19 12 39 9 44 -3 5 0 9 6 9 6 0 8 5 5 10 -3 6 -3 15 1
22 7 11 13 41 16 76 1 6 4 12 8 12 4 0 6 14 5 30 -1 17 3 30 9 30 6 0 4 5 -4
10 -12 8 -12 10 -1 10 8 0 11 7 8 20 -3 11 -2 20 2 20 5 0 7 16 6 35 -2 19 0
35 4 35 3 0 6 27 6 61 -1 33 2 62 7 65 4 3 4 13 -1 22 -4 9 -8 29 -7 45 1 15
-1 27 -4 27 -3 0 -5 18 -4 40 0 22 -2 40 -5 40 -4 0 -8 14 -9 32 -2 17 -7 37
-13 44 -7 8 -6 14 3 17 8 3 6 6 -5 6 -10 1 -17 7 -15 14 2 15 -40 99 -56 109
-6 4 -8 8 -3 8 4 0 -6 14 -23 31 -16 18 -30 37 -30 42 0 6 -3 7 -6 4 -4 -4
-14 2 -23 12 -16 18 -59 45 -74 46 -4 0 -12 6 -16 14 -5 7 -14 10 -20 7 -6 -4
-11 -3 -11 2 0 5 -6 9 -12 10 -15 1 -53 10 -53 12 0 5 -56 13 -97 14 -27 0
-48 5 -48 9 0 4 -8 3 -19 -2 -10 -6 -21 -7 -25 -4 -9 9 -46 11 -41 3z"/>
<path d="M6779 10269 c-24 -15 -50 -28 -57 -28 -7 -1 -11 -5 -8 -9 3 -5 -6
-15 -19 -22 -14 -7 -25 -17 -25 -21 0 -4 -13 -21 -30 -37 -16 -17 -30 -35 -30
-41 0 -5 -7 -14 -16 -19 -9 -5 -16 -13 -16 -18 -1 -18 -21 -53 -28 -49 -3 2
-12 -12 -19 -31 -7 -18 -17 -34 -23 -34 -5 0 -8 -7 -4 -15 3 -8 1 -15 -5 -15
-6 0 -7 -4 -4 -10 3 -5 1 -10 -4 -10 -6 0 -11 -7 -11 -15 0 -8 -4 -15 -9 -15
-9 0 -23 -33 -25 -58 -1 -7 -6 -16 -12 -20 -18 -12 -35 -52 -28 -64 5 -8 2 -9
-10 -5 -9 4 -15 3 -12 -2 5 -7 -34 -99 -63 -151 -6 -12 -31 -15 -111 -16 -88
-1 -105 -4 -117 -20 -11 -15 -11 -21 1 -38 11 -18 24 -20 99 -21 47 0 89 -4
93 -8 4 -4 0 -7 -8 -7 -10 0 -15 -8 -14 -22 0 -13 -4 -22 -11 -21 -6 1 -10 -5
-8 -15 1 -9 -3 -23 -9 -31 -6 -8 -11 -21 -11 -30 -1 -9 -8 -30 -18 -47 -9 -17
-13 -34 -10 -38 4 -3 0 -6 -7 -6 -7 0 -11 -3 -7 -6 3 -4 0 -19 -9 -35 -8 -16
-12 -29 -9 -29 3 0 1 -9 -5 -21 -6 -11 -13 -30 -15 -41 -3 -12 -8 -24 -13 -27
-5 -3 -8 -14 -6 -23 1 -10 -2 -20 -7 -24 -5 -3 -9 -16 -9 -30 0 -13 -4 -24 -8
-24 -4 0 -9 -8 -10 -17 -2 -23 -7 -43 -16 -68 -5 -11 -13 -33 -19 -50 -5 -16
-16 -37 -24 -46 -7 -9 -10 -19 -6 -22 3 -4 1 -7 -5 -7 -7 0 -11 -3 -10 -7 2
-10 -33 -72 -53 -93 -8 -9 -13 -22 -11 -28 2 -7 -1 -12 -7 -12 -6 0 -11 -6
-11 -14 0 -8 -7 -17 -16 -20 -8 -3 -13 -10 -9 -15 3 -6 -1 -13 -8 -18 -7 -4
-23 -25 -36 -46 -13 -20 -27 -34 -33 -31 -7 4 -8 2 -4 -5 4 -6 0 -14 -8 -17
-9 -3 -16 -10 -16 -16 0 -14 -27 -38 -34 -31 -3 4 -6 -1 -6 -11 0 -9 -4 -15
-9 -11 -5 3 -12 1 -16 -5 -4 -6 -11 -7 -17 -4 -7 4 -8 2 -4 -4 7 -12 5 -13
-36 -16 -32 -2 -57 45 -48 93 3 20 6 48 5 64 -1 15 1 27 5 27 3 0 7 10 7 23 3
50 12 82 22 80 5 -2 8 4 5 12 -4 9 -1 21 5 28 6 8 12 22 14 33 2 10 12 35 22
54 10 19 20 41 21 49 2 8 9 18 16 22 7 5 9 9 5 9 -5 0 0 12 10 28 10 15 30 51
43 79 14 29 29 53 33 53 5 0 5 5 2 10 -3 6 1 13 9 16 9 3 13 10 10 15 -3 5 0
9 7 9 7 0 10 3 6 6 -6 7 38 71 61 89 10 8 5 11 -20 13 -18 2 -46 5 -63 8 -50
10 -96 11 -101 2 -3 -4 -12 -8 -19 -8 -17 0 -86 -66 -77 -74 3 -3 0 -6 -6 -6
-7 0 -12 -10 -12 -22 0 -12 -3 -18 -6 -15 -4 4 -16 -13 -27 -36 -12 -23 -24
-44 -27 -47 -8 -6 -18 -32 -16 -41 0 -3 -6 -14 -14 -24 -16 -19 -24 -33 -59
-99 -14 -25 -28 -46 -33 -46 -4 0 -7 -3 -6 -7 3 -10 -102 -170 -131 -200 -11
-12 -21 -25 -21 -27 0 -9 -110 -116 -110 -108 0 4 -4 3 -8 -3 -12 -16 -69 -45
-76 -38 -3 3 -6 2 -6 -4 0 -16 -68 -7 -86 11 -8 9 -19 28 -23 43 -11 39 -4
145 10 153 8 6 8 9 -1 12 -10 3 -10 7 1 18 8 8 14 20 15 25 0 10 11 37 37 98
7 15 16 27 20 27 5 0 5 5 2 10 -3 6 -1 10 5 10 6 0 8 5 5 10 -3 6 -1 10 5 10
6 0 8 5 5 10 -3 6 -2 10 4 10 6 0 13 11 17 24 3 14 12 27 21 30 8 3 11 10 8
16 -3 5 -1 10 5 10 6 0 8 5 5 10 -3 6 1 13 9 16 9 3 16 13 16 20 0 8 7 17 15
20 8 4 15 11 15 18 0 29 230 286 256 286 7 0 14 7 18 15 3 8 11 14 18 13 7 -2
12 3 10 10 -1 8 3 12 10 10 7 -3 18 2 24 10 6 8 20 16 30 17 10 1 29 7 42 14
12 6 27 9 32 6 6 -3 10 -2 10 4 0 7 8 7 25 1 18 -7 25 -6 25 3 1 7 6 4 14 -6
9 -12 15 -14 18 -6 6 17 88 -61 88 -83 0 -10 3 -18 8 -19 4 0 15 -2 24 -4 19
-3 55 44 42 54 -5 3 -15 18 -23 33 -8 15 -18 25 -23 22 -4 -3 -8 3 -8 12 0 10
-3 14 -6 11 -4 -4 -15 3 -25 14 -9 11 -21 20 -26 20 -13 -1 -77 21 -90 31 -7
6 -13 4 -16 -4 -3 -7 -6 -8 -6 -2 -1 13 -142 10 -163 -2 -11 -7 -27 -11 -65
-16 -7 -1 -13 -5 -13 -9 0 -4 -9 -6 -20 -4 -11 2 -20 0 -20 -6 0 -5 -7 -9 -16
-9 -9 0 -28 -9 -43 -19 -15 -11 -34 -21 -42 -23 -8 -2 -16 -5 -19 -8 -3 -3
-21 -17 -41 -32 -39 -29 -149 -134 -149 -142 0 -6 -25 -39 -52 -67 -9 -9 -15
-19 -13 -21 3 -2 -7 -17 -20 -32 -14 -16 -22 -32 -20 -36 3 -4 -2 -10 -10 -14
-8 -3 -15 -12 -15 -21 0 -8 -4 -15 -10 -15 -5 0 -10 -7 -10 -15 0 -8 -5 -15
-11 -15 -5 0 -8 -4 -5 -9 8 -13 -29 -83 -39 -74 -4 4 -5 3 -2 -3 6 -10 -10
-67 -26 -91 -5 -8 -3 -13 4 -13 8 0 8 -5 -2 -16 -7 -9 -14 -28 -15 -43 -1 -14
-3 -28 -4 -31 -1 -3 -2 -9 -1 -14 1 -5 -4 -13 -11 -17 -10 -6 -10 -9 -1 -9 8
0 10 -7 5 -21 -5 -12 -5 -43 -2 -70 4 -32 3 -49 -4 -49 -6 0 -4 -5 4 -10 8 -5
11 -10 6 -10 -5 0 -3 -6 3 -13 6 -8 8 -17 5 -20 -10 -9 58 -117 73 -117 7 0
13 -4 13 -10 0 -5 7 -10 15 -10 8 0 15 -4 15 -10 0 -5 6 -7 14 -4 8 3 17 0 21
-6 6 -9 10 -9 16 1 6 10 9 10 9 2 0 -9 11 -9 44 1 25 8 47 11 50 8 4 -3 6 0 6
7 0 7 5 9 10 6 6 -3 13 1 16 9 3 9 12 16 19 16 15 0 159 139 168 163 3 9 11
17 17 17 6 0 9 4 5 9 -3 6 4 15 15 21 11 6 20 17 20 25 0 8 3 15 8 15 7 0 46
61 45 70 -1 3 6 11 14 19 13 11 14 9 8 -20 -3 -19 -8 -56 -11 -84 -3 -27 -7
-58 -9 -67 -2 -10 2 -18 8 -18 7 0 5 -5 -3 -10 -9 -6 -11 -10 -3 -10 7 0 10
-7 7 -15 -4 -8 -2 -21 4 -28 10 -12 12 -18 12 -35 0 -13 63 -78 85 -86 36 -15
95 -24 101 -15 2 4 11 6 18 3 7 -3 20 1 27 8 8 7 21 14 29 16 7 2 19 11 27 20
7 9 13 14 13 9 0 -14 130 126 130 142 0 4 9 16 20 26 11 10 20 24 20 32 0 7 7
16 15 19 8 4 15 12 15 20 0 8 5 14 11 14 5 0 8 4 5 8 -3 5 3 14 14 22 10 7 16
20 12 28 -3 10 -1 13 6 8 9 -5 10 -51 2 -51 -1 0 -3 -11 -4 -25 0 -14 -5 -30
-9 -37 -4 -6 -2 -15 4 -19 8 -5 9 -3 4 6 -6 9 -4 11 4 5 9 -5 10 -10 2 -18 -6
-6 -7 -17 -2 -26 5 -9 11 -27 12 -41 2 -14 7 -27 11 -30 3 -3 8 -11 10 -19 6
-25 80 -92 109 -98 16 -3 29 -9 29 -13 0 -5 32 -7 70 -7 39 1 70 5 70 9 0 5 8
8 18 8 28 0 141 78 186 129 12 13 27 29 34 37 6 7 12 17 12 23 0 6 7 11 17 11
9 0 14 3 10 6 -3 3 7 24 23 46 17 22 27 44 24 49 -3 5 2 9 11 9 9 0 13 5 10
10 -3 6 -1 10 5 10 6 0 8 5 5 10 -3 6 -3 10 2 10 7 0 33 49 35 67 1 4 8 13 17
20 9 7 13 13 8 13 -4 0 4 18 19 41 14 23 20 38 12 33 -7 -4 -5 2 5 13 9 11 17
25 17 31 0 7 5 12 12 12 6 0 9 3 5 6 -3 4 0 19 9 35 8 16 14 30 14 31 -1 2 6
19 14 39 8 20 16 42 18 50 2 8 5 16 8 19 4 4 21 44 56 135 4 11 6 26 5 34 -1
7 2 10 8 6 6 -3 11 -1 11 5 0 12 77 9 98 -3 7 -5 12 -3 12 5 1 8 6 6 15 -6 9
-12 15 -15 15 -7 0 11 3 11 15 1 8 -7 15 -9 15 -5 0 4 6 2 13 -4 8 -6 17 -8
20 -4 4 3 7 1 7 -6 0 -7 4 -10 8 -7 13 8 39 -46 37 -77 -2 -28 -46 -118 -73
-149 -8 -10 -11 -18 -7 -18 4 0 1 -8 -7 -17 -8 -10 -28 -43 -44 -73 -16 -30
-33 -58 -39 -62 -5 -4 -6 -8 -1 -8 5 0 3 -7 -4 -15 -7 -8 -9 -15 -4 -15 5 0 1
-5 -9 -11 -9 -6 -14 -15 -11 -21 4 -6 1 -14 -5 -18 -7 -4 -13 -17 -14 -28 -1
-12 -5 -22 -9 -22 -4 0 -7 -3 -6 -7 2 -10 -11 -61 -22 -89 -5 -14 -4 -26 3
-33 6 -6 7 -11 1 -11 -5 0 -9 -15 -8 -32 1 -18 3 -33 4 -33 1 0 4 -13 6 -30 3
-16 9 -31 15 -33 5 -2 9 -9 9 -15 0 -16 64 -87 78 -87 7 0 12 -4 12 -9 0 -4
11 -7 25 -6 14 2 25 -1 25 -6 0 -6 6 -7 13 -2 6 4 21 8 32 10 62 7 64 8 106
46 10 9 19 14 19 11 0 -8 73 69 117 124 21 26 41 49 46 50 4 2 5 8 1 13 -3 5
4 9 14 9 11 0 23 -7 26 -16 4 -10 2 -13 -6 -8 -8 5 -9 0 -4 -17 4 -13 8 -34
10 -46 5 -36 35 -91 59 -108 12 -8 17 -15 12 -15 -6 -1 2 -8 18 -16 15 -8 33
-12 39 -8 6 4 8 3 5 -3 -4 -6 2 -13 13 -16 12 -3 18 -1 14 5 -4 7 0 7 12 0 20
-10 61 -9 104 3 14 4 31 7 38 7 6 1 12 4 12 7 0 4 18 17 40 31 22 14 40 28 40
32 0 5 7 8 16 8 9 0 12 5 8 12 -4 7 -3 8 5 4 8 -5 7 -16 -6 -39 -10 -18 -21
-34 -24 -37 -3 -3 -8 -15 -11 -27 -4 -16 -2 -23 9 -23 8 0 12 3 10 8 -3 4 30
7 73 6 44 0 77 3 74 8 -3 4 0 9 5 9 6 1 16 3 21 4 6 1 15 3 21 4 5 0 8 5 5 9
-3 5 5 24 17 43 11 19 22 36 22 39 4 17 40 80 46 80 4 0 10 11 13 25 4 16 11
23 18 19 6 -4 8 -3 5 2 -8 13 47 106 57 97 4 -5 6 -3 4 2 -3 10 35 78 57 101
5 6 17 22 25 34 8 13 24 31 34 41 11 11 17 19 13 19 -4 0 9 16 28 36 19 20 35
40 35 45 0 6 5 7 10 4 6 -3 10 -1 10 5 0 6 9 20 20 32 11 12 20 18 20 13 0 -5
8 2 17 15 9 14 24 30 32 37 9 6 31 25 50 42 19 17 38 28 44 24 6 -3 7 -2 4 4
-3 5 3 17 14 26 10 9 19 14 19 11 0 -4 7 -1 15 6 26 21 63 21 68 -1 3 -10 2
-19 -2 -19 -4 0 -7 -10 -6 -22 3 -31 -5 -49 -18 -41 -6 3 -7 1 -3 -6 4 -7 -2
-32 -13 -56 -12 -25 -21 -52 -21 -61 0 -9 -6 -14 -13 -11 -7 3 -14 -3 -15 -14
-4 -42 -6 -49 -12 -49 -4 0 -13 -18 -20 -40 -7 -22 -17 -40 -21 -40 -5 0 -6
-7 -3 -15 4 -8 2 -15 -3 -15 -5 0 -15 -21 -23 -47 -7 -26 -19 -59 -26 -72 -7
-14 -11 -28 -8 -33 3 -4 0 -8 -7 -8 -7 0 -10 -3 -6 -6 3 -3 0 -22 -7 -42 -17
-48 -21 -162 -7 -162 6 0 11 -7 11 -16 0 -29 54 -66 80 -55 8 3 17 17 19 31 1
14 6 27 10 30 3 3 7 13 9 22 1 10 18 45 37 79 19 33 35 65 35 70 0 5 5 9 11 9
5 0 7 5 4 10 -3 6 -2 10 3 10 5 0 15 13 22 30 7 16 16 27 21 24 5 -3 8 -2 7 3
-4 11 44 83 55 83 5 0 5 5 2 10 -3 6 -1 10 4 10 6 0 11 7 11 16 0 8 5 12 10 9
6 -3 10 -1 10 5 0 6 6 17 13 25 6 7 22 26 34 42 12 15 34 41 48 57 14 16 25
33 25 38 0 4 7 8 17 8 9 0 14 3 10 6 -8 8 36 53 46 47 4 -2 6 -1 5 4 -2 4 10
20 25 35 15 15 27 25 27 22 0 -2 14 9 30 26 17 17 30 28 30 25 0 -3 10 5 23
18 12 13 28 22 35 20 6 -3 12 1 12 7 0 7 7 10 15 7 8 -4 17 -2 20 3 7 11 47
-2 45 -14 -1 -5 3 -12 9 -15 7 -5 6 -15 -3 -33 -8 -15 -12 -29 -8 -32 3 -3 0
-6 -7 -6 -7 0 -10 -4 -7 -8 3 -5 -5 -19 -17 -33 -12 -14 -23 -31 -25 -39 -2
-8 -9 -18 -15 -22 -7 -4 -8 -8 -4 -8 4 0 -5 -19 -21 -42 -16 -24 -32 -53 -36
-65 -4 -13 -12 -23 -17 -23 -5 0 -9 -7 -9 -15 0 -9 -7 -27 -16 -40 -9 -14 -12
-25 -8 -25 5 0 3 -4 -3 -8 -7 -5 -14 -20 -15 -35 -1 -15 -6 -27 -11 -27 -5 0
-7 -7 -3 -15 3 -8 1 -15 -3 -15 -5 0 -7 -9 -4 -20 3 -11 1 -20 -4 -20 -5 0 -9
-12 -10 -27 0 -16 -2 -37 -2 -48 -7 -91 54 -190 124 -204 6 -2 19 -10 29 -19
11 -9 16 -11 12 -4 -9 15 10 17 19 2 5 -8 11 -8 20 0 10 8 15 8 20 -1 6 -8 9
-8 15 1 4 6 21 12 38 12 18 1 32 4 32 8 0 4 13 13 28 19 15 7 40 23 55 37 15
14 27 22 27 19 0 -9 90 82 90 91 1 5 14 25 30 44 17 19 30 40 30 47 0 7 3 13
8 13 4 0 13 14 20 30 8 17 18 27 24 24 6 -4 6 -9 2 -13 -14 -9 -15 -31 -3 -31
8 0 8 -5 -1 -15 -7 -8 -8 -15 -3 -15 5 0 9 -18 9 -40 -1 -22 3 -40 8 -40 5 0
7 -3 3 -6 -15 -15 67 -134 92 -134 6 0 11 -5 11 -11 0 -5 4 -8 8 -5 5 3 19 -1
33 -7 27 -14 169 -11 187 3 1 2 5 3 10 4 17 4 128 61 134 70 10 15 36 15 49 0
6 -8 18 -14 25 -14 8 0 14 -4 14 -10 0 -5 7 -10 15 -10 8 0 15 -4 15 -8 0 -4
15 -9 33 -10 17 -2 34 -7 35 -13 3 -6 9 -6 18 2 11 9 14 9 14 0 0 -8 5 -9 19
-1 14 7 22 7 26 0 5 -8 11 -8 19 -1 7 6 21 12 32 14 24 4 83 35 107 55 9 8 18
12 18 9 5 -25 3 -33 -11 -44 -8 -6 -12 -15 -8 -18 4 -4 1 -14 -7 -21 -8 -8
-12 -20 -9 -28 6 -15 46 -14 52 2 2 7 8 12 13 12 6 0 8 -4 5 -9 -5 -8 19 -7
89 3 37 5 53 17 65 47 7 16 16 29 21 29 5 0 9 9 9 19 0 11 7 26 15 35 8 8 15
22 15 30 0 9 5 16 10 16 6 0 10 7 10 15 0 8 5 15 11 15 5 0 8 4 5 9 -3 5 1 14
9 21 8 7 12 16 9 21 -3 5 2 12 10 15 9 3 13 10 10 15 -3 5 0 9 5 9 6 0 11 7
11 15 0 8 5 15 10 15 6 0 10 7 10 15 0 9 7 18 15 21 8 4 12 10 9 15 -3 5 2 12
10 15 9 3 14 9 11 14 -2 4 4 16 13 26 10 10 29 35 42 54 30 42 60 77 121 142
26 26 44 48 42 48 -2 0 10 12 29 28 18 15 48 41 67 57 18 17 37 29 42 28 5 -2
9 4 9 13 0 8 4 13 8 10 5 -3 19 4 30 14 12 11 25 20 29 19 4 -1 13 0 18 1 44
10 67 -11 59 -56 -5 -29 -70 -143 -88 -156 -6 -4 -7 -8 -3 -8 5 0 1 -7 -7 -16
-9 -8 -16 -22 -16 -30 0 -8 -5 -14 -11 -14 -5 0 -7 -4 -4 -10 3 -5 1 -10 -5
-10 -6 0 -8 -4 -5 -10 3 -5 1 -10 -5 -10 -6 0 -8 -4 -5 -10 3 -5 2 -10 -3 -10
-9 0 -25 -37 -23 -52 1 -5 -4 -8 -10 -8 -5 0 -8 -4 -4 -9 3 -5 0 -13 -6 -16
-5 -4 -8 -13 -5 -21 3 -8 -1 -17 -8 -20 -8 -3 -12 -14 -9 -25 3 -10 1 -19 -5
-19 -6 0 -11 -8 -11 -17 -1 -40 -7 -79 -14 -90 -5 -8 -4 -13 3 -13 8 0 8 -6 0
-20 -6 -11 -7 -20 -3 -20 5 0 9 -13 9 -29 2 -45 74 -138 96 -125 4 3 8 -2 8
-10 0 -9 3 -15 8 -15 26 4 52 -2 46 -12 -4 -8 0 -8 15 0 14 8 21 8 21 1 0 -8
6 -8 20 0 15 8 20 8 20 -1 0 -8 4 -9 13 0 8 6 22 12 33 14 22 3 107 56 112 69
2 4 8 6 13 2 5 -3 9 2 9 11 0 9 5 13 10 10 6 -3 10 -2 10 4 0 5 16 26 35 47
19 20 35 41 35 46 0 5 5 6 12 2 6 -4 8 -3 5 3 -4 6 2 22 13 36 11 14 20 29 20
34 0 6 6 10 14 10 10 0 12 -9 9 -31 -3 -17 -5 -33 -6 -36 0 -3 5 -18 11 -33 7
-16 12 -35 12 -43 0 -8 4 -12 10 -9 5 3 8 0 5 -7 -5 -15 46 -78 64 -78 6 0 11
-4 11 -9 0 -26 151 -33 200 -10 19 10 39 15 45 11 5 -3 7 -2 3 3 -5 5 6 16 22
26 17 11 30 24 30 29 0 6 4 9 9 6 5 -3 12 1 15 10 3 8 11 12 16 9 6 -4 9 -3 8
2 -4 12 38 63 51 63 6 0 10 3 9 8 -2 4 11 27 28 52 17 25 35 56 39 69 10 32
24 14 26 -34 1 -22 7 -48 12 -59 6 -12 6 -16 -2 -12 -6 4 -4 -9 4 -29 9 -19
12 -35 8 -35 -5 0 -3 -4 2 -8 6 -4 21 -24 35 -45 14 -20 33 -40 43 -43 9 -3
17 -9 17 -13 0 -4 10 -7 22 -8 11 -1 24 -6 27 -10 5 -7 120 -10 146 -3 6 1 13
2 18 1 4 0 7 3 7 7 0 4 10 9 22 9 13 1 24 7 26 12 2 5 10 7 18 4 8 -3 14 0 14
7 0 6 4 9 9 6 5 -3 12 1 15 10 3 8 10 13 14 10 5 -3 20 6 35 20 15 14 27 19
27 13 0 -7 3 -10 6 -6 3 3 18 -5 32 -19 15 -13 35 -24 44 -24 10 0 18 -5 18
-11 0 -5 3 -8 8 -6 4 3 18 0 32 -6 31 -12 59 -14 87 -5 13 4 24 2 27 -5 3 -9
5 -8 5 1 1 7 6 10 11 7 6 -3 10 -2 10 4 0 6 7 8 15 5 8 -4 15 -1 15 6 0 6 5 8
10 5 6 -3 10 -1 10 4 0 6 3 10 8 9 12 -4 56 24 88 56 29 29 73 49 60 27 -12
-19 63 -119 78 -104 3 4 6 -1 6 -11 0 -9 4 -15 9 -12 5 3 23 -2 41 -10 18 -9
43 -16 56 -16 15 0 21 -5 17 -12 -4 -6 1 -5 10 3 12 9 17 10 17 2 0 -8 5 -9
18 -2 13 7 23 6 30 -1 9 -9 12 -9 12 1 0 7 6 11 14 8 7 -3 25 1 39 8 19 10 27
10 31 2 3 -8 5 -8 5 1 1 7 6 10 11 7 6 -3 10 -2 10 4 0 6 18 5 48 -4 54 -17
53 -17 70 -3 7 6 12 7 12 1 0 -12 26 -10 63 6 16 6 33 9 38 5 5 -3 9 0 9 5 0
6 3 10 8 9 11 -4 72 26 72 35 0 5 4 6 9 3 5 -3 11 1 15 9 3 8 12 15 21 15 8 0
15 6 15 13 0 7 19 31 43 53 54 53 65 67 109 139 65 110 108 192 101 199 -3 3
-1 6 5 6 6 0 13 13 17 29 3 16 13 32 20 35 8 3 12 12 9 21 -3 8 -2 15 3 15 12
0 14 38 2 45 -5 4 -6 11 -3 17 4 6 -3 4 -16 -5 -24 -17 -34 -33 -74 -114 -14
-28 -30 -54 -36 -58 -5 -3 -8 -11 -5 -16 4 -5 1 -9 -4 -9 -6 0 -10 -3 -9 -7 3
-16 -15 -43 -25 -36 -6 3 -7 1 -3 -5 7 -12 -12 -53 -32 -65 -7 -5 -10 -12 -7
-18 4 -5 1 -9 -4 -9 -6 0 -10 -3 -9 -7 3 -15 -14 -43 -23 -37 -5 3 -9 2 -8 -3
3 -19 -14 -52 -24 -46 -7 4 -8 0 -3 -13 4 -10 4 -15 0 -11 -4 4 -21 -9 -38
-29 -29 -34 -115 -100 -126 -97 -3 1 -16 -5 -29 -14 -15 -9 -21 -10 -16 -2 6
9 4 10 -6 3 -15 -10 -99 -15 -99 -6 0 8 82 82 92 82 5 0 7 4 4 9 -4 5 -2 11 2
13 16 6 78 102 98 153 12 28 20 62 20 78 -1 15 1 27 5 27 3 0 3 19 -1 41 -4
23 -7 49 -5 58 1 9 -3 22 -9 30 -9 12 -8 13 4 7 13 -7 13 -6 0 6 -8 7 -16 24
-18 38 -1 14 -6 26 -11 28 -5 2 -7 12 -4 22 3 12 0 20 -6 20 -7 0 -9 5 -6 10
3 6 1 10 -5 10 -7 0 -10 7 -6 15 3 8 1 15 -4 15 -6 0 -10 9 -10 20 0 11 -4 20
-10 20 -5 0 -10 8 -10 18 0 10 -7 27 -15 38 -8 12 -11 24 -8 28 3 3 1 6 -6 6
-7 0 -9 5 -6 10 3 6 2 10 -4 10 -5 0 -8 9 -6 20 2 11 -1 22 -6 25 -5 4 -6 11
-3 17 4 6 0 14 -7 19 -8 5 -9 9 -4 9 6 0 9 23 7 56 -3 45 -1 55 10 48 10 -6
11 -5 1 8 -7 8 -10 18 -6 22 4 3 8 17 10 29 2 12 8 24 13 25 6 2 10 8 10 13 0
17 54 67 75 71 11 2 23 7 26 12 4 5 13 5 20 0 12 -7 33 -12 84 -17 11 -2 23 2
27 8 10 14 -41 65 -58 58 -8 -3 -14 -1 -14 5 0 6 -8 9 -17 8 -10 -2 -21 2 -25
8 -5 8 -8 7 -8 -2 0 -7 -5 -10 -10 -7 -6 4 -18 1 -27 -7 -11 -8 -14 -9 -10 -1
5 7 -14 3 -43 -9 -27 -11 -50 -25 -50 -30 0 -5 -4 -7 -9 -3 -5 3 -12 -4 -16
-15 -4 -11 -10 -18 -15 -15 -5 3 -11 -4 -15 -15 -3 -11 -10 -20 -14 -20 -11 0
-81 -107 -81 -124 0 -8 -3 -16 -7 -18 -7 -2 -44 -72 -48 -88 -1 -3 -19 -41
-40 -85 -22 -44 -38 -83 -37 -87 1 -5 -3 -8 -9 -8 -5 0 -7 -4 -4 -10 3 -5 1
-10 -5 -10 -6 0 -8 -4 -5 -10 3 -5 2 -10 -2 -10 -5 0 -15 -16 -22 -35 -7 -19
-17 -35 -22 -35 -5 0 -9 -7 -9 -15 0 -8 -5 -15 -12 -15 -6 0 -8 -3 -5 -7 4 -3
2 -12 -4 -20 -6 -7 -8 -13 -3 -13 5 0 2 -5 -6 -10 -8 -5 -15 -13 -16 -17 -2
-26 -57 -123 -69 -123 -8 0 -15 -4 -15 -10 0 -5 -5 -10 -11 -10 -13 0 -44 -30
-44 -44 -1 -6 -7 -10 -15 -8 -8 2 -12 0 -8 -3 4 -4 1 -19 -6 -34 -7 -14 -13
-43 -12 -64 1 -24 -4 -37 -12 -37 -6 0 -11 -4 -10 -8 2 -4 -14 -25 -34 -46
-21 -22 -38 -43 -38 -48 0 -5 -4 -7 -9 -4 -5 3 -12 -1 -15 -10 -3 -8 -10 -13
-15 -10 -5 4 -11 2 -13 -3 -1 -5 -10 -11 -18 -13 -8 -2 -18 -7 -21 -12 -9 -11
-99 -14 -99 -3 0 5 -4 6 -9 2 -5 -3 -12 -1 -16 4 -3 6 -13 7 -22 4 -10 -4 -14
-2 -10 4 4 6 -2 13 -13 16 -11 3 -24 16 -29 28 -7 20 -2 30 30 62 22 21 39 42
39 48 0 6 5 7 10 4 6 -3 10 -2 10 2 0 5 7 18 15 28 43 55 105 145 99 145 -3 0
3 12 14 28 11 15 23 37 26 50 4 12 12 22 18 22 6 0 8 3 5 6 -3 4 -1 16 5 28 7
11 11 24 10 27 0 4 7 24 17 45 12 25 15 41 9 45 -7 4 -6 8 2 11 12 4 21 49 21
96 -1 13 3 21 7 18 10 -6 9 25 -2 42 -4 7 -2 12 6 12 8 0 9 3 3 8 -5 4 -10 18
-11 32 -3 67 -28 150 -46 150 -4 0 -7 3 -7 8 3 19 -2 33 -11 27 -5 -3 -10 1
-10 9 0 15 -12 21 -33 17 -4 -1 -10 5 -13 13 -3 8 -12 12 -20 9 -8 -3 -14 0
-14 5 0 6 -9 9 -20 7 -11 -2 -20 -1 -20 3 0 4 -14 7 -30 8 -17 1 -30 -4 -30
-9 0 -7 -4 -7 -12 1 -7 7 -17 8 -30 1 -10 -5 -18 -7 -18 -3 0 3 -7 1 -15 -6
-8 -7 -22 -10 -30 -6 -9 3 -13 2 -10 -4 3 -6 -3 -10 -14 -10 -12 0 -21 -4 -21
-10 0 -5 -3 -9 -7 -8 -13 3 -63 -24 -63 -34 0 -4 -6 -8 -14 -8 -8 0 -36 -19
-62 -42 -82 -75 -171 -168 -159 -168 2 0 -7 -12 -20 -26 -14 -15 -37 -47 -51
-73 -15 -25 -30 -48 -33 -51 -3 -3 -7 -12 -9 -20 -2 -8 -11 -23 -19 -32 -9
-10 -13 -18 -9 -18 4 0 -2 -15 -13 -33 -11 -19 -18 -37 -14 -40 3 -4 1 -7 -5
-7 -6 0 -16 -16 -23 -35 -7 -19 -17 -35 -22 -35 -4 0 -5 -4 -2 -10 3 -5 1 -10
-6 -10 -7 0 -9 -3 -6 -7 4 -3 0 -15 -10 -25 -9 -10 -13 -18 -9 -18 4 0 1 -7
-6 -15 -31 -34 -36 -43 -31 -49 4 -3 1 -6 -5 -6 -7 0 -11 -3 -10 -7 4 -12 -61
-107 -96 -143 -11 -11 -17 -20 -14 -20 4 0 -5 -13 -20 -28 -15 -15 -30 -27
-33 -25 -4 2 -10 -4 -13 -13 -3 -8 -10 -12 -16 -9 -5 3 -10 1 -10 -5 0 -6 -4
-9 -9 -5 -5 3 -12 1 -16 -5 -7 -12 -88 -14 -99 -2 -4 4 -12 7 -17 7 -5 0 -9 5
-10 10 0 6 -6 17 -13 25 -17 22 -12 100 12 161 6 15 8 30 5 33 -4 3 -1 6 5 6
7 0 11 3 10 8 -2 9 18 60 38 95 8 15 12 27 9 27 -3 0 1 12 9 28 15 25 57 118
61 135 2 4 3 12 4 18 0 5 6 7 13 3 7 -4 8 -3 4 4 -4 6 3 33 15 59 13 26 24 55
25 63 2 8 7 16 13 18 5 2 8 9 5 16 -3 8 2 21 11 29 9 9 15 18 15 19 -2 5 11
41 32 88 11 25 21 51 22 58 2 8 7 17 13 20 5 4 9 15 7 24 -1 10 2 21 7 24 6 3
0 14 -12 25 -12 10 -26 16 -30 13 -5 -3 -9 -1 -9 4 0 5 -49 8 -108 8 -89 -1
-109 -4 -109 -16 0 -8 4 -18 9 -21 14 -9 28 -68 17 -75 -5 -3 -7 -9 -4 -14 3
-5 -1 -23 -10 -40 -8 -16 -15 -31 -15 -32 2 -5 -11 -42 -25 -73 -22 -50 -34
-93 -27 -101 4 -4 1 -4 -5 0 -7 4 -13 2 -13 -3 0 -19 -2 -26 -13 -46 -6 -11
-12 -22 -13 -25 -9 -33 -28 -70 -37 -70 -6 0 -8 -3 -4 -6 5 -5 -49 -120 -63
-134 -5 -5 -29 -48 -57 -101 -7 -15 -20 -32 -28 -39 -8 -7 -15 -19 -15 -26 0
-8 -4 -14 -8 -14 -4 0 -16 -14 -26 -31 -10 -16 -30 -43 -46 -59 -15 -16 -25
-31 -22 -34 3 -3 1 -6 -4 -6 -5 0 -27 -15 -49 -34 -21 -19 -45 -32 -52 -29 -7
3 -13 0 -13 -7 0 -6 -4 -8 -10 -5 -5 3 -10 1 -10 -5 0 -6 -5 -8 -12 -3 -7 4
-19 8 -27 10 -18 2 -32 24 -26 41 3 7 1 11 -4 8 -5 -3 -9 9 -9 28 0 19 -4 41
-8 48 -6 10 -5 11 8 1 13 -11 15 -8 13 27 -1 22 1 40 5 40 4 0 7 6 8 13 1 27
12 60 22 73 7 7 9 18 5 24 -3 5 -1 10 5 10 6 0 8 5 5 10 -3 6 -1 10 5 10 6 0
8 5 4 11 -3 6 -2 14 4 18 7 4 13 16 15 28 1 12 9 28 16 37 7 9 11 16 7 16 -4
0 1 11 10 25 9 14 12 25 8 25 -5 0 -4 4 1 8 17 12 65 113 59 123 -3 5 2 9 10
9 9 0 13 7 11 20 -2 11 0 20 4 20 4 0 20 26 36 58 15 31 31 59 34 62 4 3 15
24 25 48 11 23 23 42 29 42 5 0 7 9 4 20 -3 11 -1 18 3 15 5 -3 12 5 16 17 4
13 10 25 15 28 13 9 24 64 10 56 -6 -4 -11 -1 -11 6 0 9 -3 10 -8 2 -4 -6 -15
-10 -24 -8 -10 1 -18 -1 -18 -6 0 -5 -8 -7 -17 -6 -9 2 -29 -4 -45 -11 -15 -8
-33 -11 -39 -7 -7 4 -9 3 -6 -3 6 -9 -15 -21 -45 -27 -4 0 -16 -8 -26 -17 -10
-8 -23 -14 -30 -11 -7 2 -12 -2 -12 -9 0 -7 -3 -10 -6 -6 -3 3 -15 -3 -27 -13
-11 -11 -24 -17 -29 -14 -4 3 -8 0 -8 -5 0 -6 -7 -11 -15 -11 -8 0 -15 -4 -15
-10 0 -5 -7 -10 -15 -10 -8 0 -15 -5 -15 -11 0 -6 -7 -9 -15 -5 -8 3 -14 1
-12 -3 1 -5 -1 -8 -5 -8 -4 1 -15 -8 -23 -21 -9 -12 -20 -20 -25 -17 -4 3 -11
-2 -14 -11 -4 -9 -9 -15 -12 -12 -2 3 -30 -19 -61 -48 -31 -30 -59 -54 -64
-54 -4 0 -11 -9 -14 -20 -4 -11 -11 -18 -16 -15 -5 4 -9 -1 -9 -10 0 -9 -4
-14 -8 -11 -5 3 -15 -6 -22 -19 -7 -14 -17 -25 -22 -25 -4 0 -8 -7 -8 -16 0
-8 -4 -13 -9 -10 -5 3 -21 -12 -36 -33 -14 -22 -33 -42 -41 -45 -9 -3 -12 -10
-9 -16 3 -5 1 -10 -4 -10 -6 0 -11 3 -11 6 0 7 53 107 60 114 3 3 14 24 25 47
11 24 24 43 28 43 5 0 5 5 2 10 -3 6 -1 10 5 10 6 0 8 5 5 10 -3 6 -1 10 4 10
6 0 11 6 11 14 0 7 7 19 15 26 8 6 14 15 13 18 -3 15 15 42 23 36 5 -3 8 -1 7
4 -4 12 44 91 55 92 4 0 7 6 7 13 0 8 11 27 25 43 14 16 25 32 25 37 0 4 6 7
13 7 7 0 20 13 29 28 14 24 15 29 3 29 -8 0 -11 -5 -8 -11 5 -7 2 -7 -8 0 -8
6 -22 10 -31 9 -10 -2 -18 0 -18 3 0 4 -20 7 -45 8 -25 0 -45 -3 -45 -7 0 -4
-9 -5 -20 -2 -12 3 -20 0 -20 -8 0 -7 -3 -9 -6 -6 -6 6 -33 -20 -76 -71 -9
-11 -14 -22 -12 -25 2 -2 -2 -10 -11 -17 -8 -7 -15 -19 -15 -26 0 -8 -4 -14
-10 -14 -5 0 -10 -7 -10 -15 0 -8 -9 -24 -20 -35 -11 -11 -20 -22 -19 -25 2
-12 -24 -65 -32 -65 -5 0 -8 -3 -7 -7 3 -12 -36 -87 -52 -101 -13 -12 -13 -13
0 -7 8 4 6 -1 -5 -10 -11 -9 -19 -19 -17 -23 1 -4 -5 -15 -13 -24 -8 -10 -12
-18 -9 -18 4 0 2 -6 -4 -12 -6 -7 -11 -17 -13 -23 -4 -20 -34 -80 -43 -86 -5
-4 -6 -11 -2 -17 3 -5 -1 -13 -10 -16 -8 -3 -12 -10 -9 -16 3 -5 3 -10 -2 -10
-7 0 -32 -46 -36 -67 -1 -8 -21 -34 -44 -58 -7 -8 -13 -18 -13 -24 0 -6 -4
-11 -10 -11 -5 0 -10 -7 -10 -16 0 -8 -4 -12 -10 -9 -5 3 -10 2 -10 -3 0 -15
-62 -82 -71 -76 -5 3 -9 1 -9 -5 0 -15 -42 -51 -52 -45 -4 3 -8 0 -8 -6 0 -6
-4 -8 -10 -5 -5 3 -10 2 -10 -3 0 -5 -10 -8 -22 -8 -13 1 -27 0 -33 -3 -19
-10 -35 -9 -35 2 0 7 -5 5 -10 -3 -6 -10 -10 -11 -10 -2 0 6 -8 12 -17 12 -10
0 -34 15 -55 33 -33 29 -35 34 -22 52 8 10 14 15 14 11 0 -4 12 7 28 26 15 18
38 43 51 55 13 13 20 23 16 23 -4 0 4 11 19 25 14 13 26 28 26 33 0 4 9 18 21
31 12 12 19 25 16 27 -3 3 3 14 14 25 10 10 19 26 19 35 0 9 5 12 13 8 6 -4 9
-4 5 1 -4 4 0 22 9 39 10 17 16 34 15 39 -1 4 2 7 6 7 5 0 9 7 10 15 1 8 3 22
4 30 1 8 6 15 11 15 5 0 7 9 4 20 -3 10 0 21 5 22 5 2 11 15 11 30 1 14 5 24
8 22 7 -4 7 3 11 123 2 46 6 69 13 65 5 -3 3 2 -5 13 -8 10 -14 26 -12 37 2
10 -1 18 -5 18 -5 0 -10 10 -10 22 -3 29 -22 67 -49 95 -26 26 -99 64 -108 56
-3 -4 -6 -2 -6 3 0 10 -73 9 -130 -2 -19 -4 -38 -7 -42 -6 -5 1 -8 -3 -8 -8 0
-6 -9 -10 -19 -10 -11 0 -27 -7 -35 -16 -9 -8 -16 -13 -16 -9 0 13 -126 -79
-164 -120 -10 -11 -22 -19 -26 -18 -5 2 -12 -6 -15 -17 -4 -11 -13 -20 -21
-20 -8 0 -13 -6 -12 -12 2 -7 -3 -12 -10 -10 -8 1 -11 -2 -7 -8 3 -5 -5 -21
-19 -35 -14 -14 -22 -25 -18 -25 4 0 -1 -5 -11 -11 -9 -6 -15 -14 -12 -20 4
-5 2 -9 -4 -9 -5 0 -20 -20 -32 -45 -12 -25 -26 -45 -31 -45 -4 0 -7 -3 -6 -7
1 -5 -13 -37 -30 -72 -18 -36 -32 -71 -32 -78 0 -8 -5 -11 -12 -7 -6 4 -8 3
-5 -3 6 -10 -42 -115 -55 -121 -5 -2 -8 -8 -8 -14 0 -6 -10 -25 -23 -42 -13
-17 -26 -39 -30 -48 -3 -10 -11 -18 -17 -18 -6 0 -8 -5 -5 -10 3 -6 -1 -13 -9
-16 -9 -3 -16 -11 -16 -16 0 -6 -22 -37 -50 -70 -27 -33 -50 -56 -50 -53 0 4
-12 -4 -26 -19 -24 -24 -32 -27 -50 -25 -3 0 -12 -8 -21 -18 -8 -10 -12 -12
-8 -5 5 9 -1 11 -19 8 -27 -5 -71 28 -60 45 2 4 0 11 -6 14 -8 5 -7 11 1 21 8
10 8 14 0 14 -7 0 -8 8 -2 23 4 12 6 28 3 36 -3 8 0 11 7 7 6 -4 9 -2 5 7 -3
8 8 50 25 95 16 44 27 83 23 86 -3 3 0 6 6 6 7 0 11 3 10 8 -1 4 5 21 12 37 7
17 13 33 12 38 -1 4 3 7 9 7 6 0 9 7 5 15 -3 8 2 19 12 24 9 6 14 11 9 11 -4
0 7 28 25 63 32 62 34 68 37 88 0 5 7 7 14 3 6 -4 9 -4 5 1 -7 8 60 147 74
153 4 2 6 7 3 12 -3 5 1 14 8 22 7 7 19 28 26 46 7 17 18 32 23 32 5 0 6 5 3
10 -3 6 -1 10 5 10 6 0 8 5 5 10 -3 6 -1 10 6 10 7 0 9 3 6 7 -4 3 -1 13 5 21
24 28 17 38 -21 35 -20 -2 -44 -4 -53 -4 -9 0 -44 -14 -78 -30 -33 -16 -65
-29 -70 -29 -6 0 -10 -5 -10 -11 0 -5 -5 -7 -10 -4 -6 3 -12 0 -15 -7 -3 -8
-15 -15 -27 -15 -12 -1 -26 -9 -30 -18 -5 -8 -13 -13 -19 -10 -5 4 -9 1 -9 -4
0 -6 -6 -11 -14 -11 -7 0 -19 -7 -26 -15 -7 -9 -15 -13 -17 -11 -3 2 -18 -8
-35 -22 -16 -15 -31 -25 -32 -22 -1 3 -15 -7 -31 -22 -16 -15 -33 -24 -38 -21
-6 3 -7 2 -4 -4 3 -5 -8 -20 -25 -34 -17 -13 -43 -36 -58 -51 -15 -16 -33 -28
-40 -28 -7 0 -11 -3 -8 -6 4 -3 -8 -20 -25 -39 -62 -64 -117 -126 -117 -130 0
-3 -10 -15 -21 -26 -24 -24 -24 -24 11 46 14 28 31 54 38 58 7 5 10 12 7 18
-4 5 1 16 9 25 9 9 14 20 11 25 -4 5 1 9 10 9 10 0 13 5 9 12 -4 6 1 17 10 24
10 7 17 15 16 18 -2 12 34 86 42 86 4 0 8 9 8 21 0 13 4 18 12 13 7 -4 8 -3 4
4 -4 6 3 31 15 54 30 59 27 103 -10 137 -25 24 -37 27 -73 24 -24 -2 -53 -11
-65 -19 -13 -8 -23 -11 -23 -7 0 4 -7 -2 -16 -13 -8 -10 -12 -12 -8 -4 6 11 2
10 -13 -2 -11 -10 -25 -18 -32 -18 -7 0 -10 -4 -6 -9 3 -5 -4 -13 -15 -16 -20
-6 -33 -17 -122 -100 -20 -18 -39 -31 -42 -28 -3 4 -6 -1 -6 -10 0 -10 -5 -17
-10 -17 -6 0 -29 -18 -50 -40 -22 -23 -40 -39 -40 -36 0 11 -180 -178 -182
-191 -1 -4 -12 -16 -25 -26 -13 -10 -21 -23 -18 -28 4 -5 -1 -9 -10 -9 -13 0
-14 3 -3 23 7 12 11 25 10 30 -1 4 3 7 9 7 5 0 7 5 4 10 -3 6 -2 10 4 10 5 0
13 10 16 22 4 11 21 44 38 72 16 28 30 56 30 63 0 7 6 14 14 17 7 3 13 12 13
19 0 8 7 20 15 27 8 7 13 16 10 20 -2 4 5 16 15 28 11 12 20 26 20 31 0 5 6
16 13 23 6 7 24 32 40 56 15 23 32 42 37 42 6 0 10 6 10 13 0 7 11 23 25 35
34 30 31 39 -12 39 -21 -1 -49 3 -62 7 -18 6 -22 5 -15 -5 6 -11 5 -12 -7 -3
-8 6 -23 10 -34 8 -11 -3 -28 -5 -37 -6 -10 -1 -18 -9 -18 -18 0 -13 -1 -13
-10 0 -5 8 -10 11 -10 5 0 -5 -13 -23 -28 -40 -16 -16 -29 -34 -30 -40 -1 -5
-9 -18 -17 -28 -8 -9 -15 -19 -15 -22 0 -2 -13 -26 -29 -54 -16 -27 -27 -52
-24 -55 4 -3 2 -6 -4 -6 -11 0 -40 -59 -35 -72 1 -5 -2 -8 -8 -8 -5 0 -19 -22
-32 -50 -13 -27 -27 -50 -31 -50 -5 0 -5 -4 -2 -10 3 -5 2 -10 -2 -10 -5 0
-19 -22 -32 -50 -13 -27 -27 -50 -32 -50 -5 0 -6 -7 -3 -15 4 -8 1 -15 -5 -15
-6 0 -11 -9 -11 -20 0 -11 -4 -20 -9 -20 -5 0 -14 -12 -20 -27 -7 -16 -17 -37
-24 -48 -7 -11 -25 -43 -41 -70 -16 -28 -37 -56 -45 -63 -13 -11 -13 -12 -1
-7 10 4 9 2 -2 -8 -10 -8 -18 -17 -18 -20 0 -15 -120 -140 -128 -132 -2 2 -10
-2 -17 -9 -7 -7 -35 -13 -63 -15 -40 -1 -55 3 -74 21 -23 22 -44 78 -28 78 3
0 4 14 2 31 -3 21 -1 30 6 25 6 -4 8 1 5 13 -3 10 3 33 11 50 9 17 16 32 15
33 -5 7 25 77 31 73 3 -2 6 4 7 13 1 9 7 31 14 47 7 17 13 32 14 35 0 3 12 28
25 55 13 28 23 54 22 59 -2 5 5 17 14 27 9 11 14 19 9 19 -4 0 0 11 9 25 9 14
14 29 11 34 -2 5 2 12 10 15 8 3 15 9 14 13 -1 8 0 12 6 31 2 4 6 17 10 30 4
12 12 22 17 22 5 0 6 5 2 11 -3 6 -2 14 4 18 7 4 13 18 16 31 2 14 9 24 15 23
5 -2 8 4 5 11 -3 8 2 26 11 40 9 14 14 29 11 35 -3 5 1 12 10 15 9 4 14 9 11
12 -3 3 -2 17 3 30 6 16 6 24 -1 24 -6 0 -8 4 -5 9 7 10 -22 24 -34 16 -5 -3
-11 -1 -15 5 -4 6 -11 8 -16 4 -5 -3 -15 -1 -22 5 -7 6 -18 6 -26 1 -8 -4 -21
-6 -29 -2 -11 4 -13 1 -7 -8 6 -10 4 -11 -6 -4 -18 11 -99 13 -93 2 3 -4 0 -8
-6 -8 -6 0 -4 -11 6 -25 18 -28 27 -85 13 -85 -5 0 -9 -5 -9 -11 0 -5 6 -7 13
-3 9 6 9 5 0 -7 -17 -22 -62 -137 -55 -143 3 -3 0 -6 -7 -6 -8 0 -11 -8 -8
-20 3 -13 0 -20 -9 -20 -8 0 -11 -6 -8 -15 4 -8 1 -15 -5 -15 -6 0 -10 -3 -10
-7 4 -19 -14 -72 -22 -67 -5 3 -9 -6 -9 -20 0 -14 -4 -26 -10 -26 -5 0 -9 -3
-8 -7 3 -13 -25 -83 -34 -83 -4 0 -7 -3 -6 -7 3 -9 -43 -105 -53 -113 -4 -3
-17 -24 -29 -47 -12 -24 -27 -43 -33 -43 -6 0 -7 -3 -4 -6 8 -8 -32 -68 -80
-120 -12 -13 -19 -24 -16 -24 13 0 -55 -56 -95 -77 l-42 -23 -28 28 c-27 27
-41 92 -19 92 5 0 5 5 -2 13 -6 8 -8 17 -4 21 4 3 8 13 10 21 6 28 11 50 13
50 2 0 11 38 12 53 1 6 5 12 9 12 4 0 10 16 13 35 4 19 12 35 18 35 6 0 9 3 5
6 -3 4 3 24 14 45 11 22 17 39 13 39 -3 0 2 7 10 16 9 8 16 21 16 29 0 19 26
65 33 60 4 -3 5 -2 2 1 -2 4 4 23 14 43 11 20 20 41 22 46 1 6 9 16 16 23 7 8
11 18 8 23 -4 5 -1 9 4 9 6 0 11 7 11 15 0 8 9 23 21 34 14 13 17 21 9 26 -8
5 -6 11 7 21 10 7 14 14 9 14 -4 0 -1 11 8 25 9 13 17 36 18 50 1 14 7 25 13
25 5 0 3 5 -5 10 -8 5 -10 10 -4 10 6 0 10 10 9 22 -2 24 -35 41 -56 27 -19
-12 -32 -11 -23 2 4 7 -1 7 -16 -1 -12 -6 -24 -9 -27 -6 -3 2 -16 1 -29 -4
-14 -6 -26 -6 -29 0 -4 6 -14 7 -23 2 -22 -10 -240 -7 -250 3 -4 4 -1 10 6 12
57 21 188 207 159 225 -8 5 -8 8 -1 8 6 0 11 18 11 40 0 22 -3 40 -6 40 -4 0
-7 10 -8 22 -1 11 -7 24 -13 28 -7 4 -12 11 -12 16 -1 18 -24 39 -43 38 -11 0
-25 3 -31 8 -13 9 -44 0 -44 -12 0 -5 -9 -12 -21 -15 -12 -4 -18 -13 -15 -20
3 -8 -1 -19 -9 -25 -7 -6 -12 -19 -11 -28 2 -9 -1 -30 -5 -47 -5 -16 -10 -41
-13 -55 -22 -110 -48 -204 -60 -212 -6 -4 -8 -10 -4 -13 3 -3 -5 -38 -18 -76
-13 -39 -21 -75 -18 -80 3 -5 0 -8 -8 -7 -8 2 -12 -4 -10 -14 2 -10 -1 -18 -5
-18 -5 0 -10 -12 -11 -26 -1 -15 -10 -33 -20 -41 -9 -8 -11 -12 -4 -8 8 4 5
-6 -6 -27 -10 -18 -17 -39 -15 -45 3 -7 0 -13 -6 -13 -6 0 -11 -9 -11 -20 0
-11 -7 -23 -15 -26 -8 -4 -13 -10 -10 -14 5 -9 -22 -67 -35 -75 -5 -3 -7 -12
-3 -20 3 -8 1 -15 -4 -15 -5 0 -21 -24 -36 -52 -16 -29 -37 -66 -47 -83 -11
-16 -23 -37 -27 -45 -4 -8 -14 -20 -22 -27 -9 -7 -12 -13 -7 -13 4 0 -6 -16
-23 -35 -17 -20 -31 -40 -31 -45 0 -6 -7 -10 -15 -10 -8 0 -14 -4 -13 -8 4
-13 -72 -83 -83 -77 -5 4 -8 1 -7 -7 2 -8 -4 -12 -16 -10 -11 2 -15 -1 -11 -7
5 -9 -18 -16 -28 -8 -2 1 -10 -3 -18 -9 -24 -20 -109 1 -109 27 0 6 -4 8 -9 4
-6 -3 -8 4 -6 15 2 11 -1 20 -6 20 -6 0 -8 27 -5 68 5 63 12 117 16 117 2 0
10 36 17 75 3 19 9 42 13 50 4 8 6 25 5 38 -1 12 1 22 5 22 4 0 7 6 8 13 2 18
9 60 13 76 4 13 83 97 97 103 4 1 18 16 32 33 14 16 32 35 40 42 8 7 11 13 7
13 -4 0 10 17 33 37 22 20 40 41 40 45 0 8 22 38 53 70 9 10 17 22 17 26 0 5
9 17 20 27 11 10 18 20 16 23 -5 4 3 15 34 49 8 9 15 22 16 29 1 8 9 21 18 30
9 8 16 19 16 23 0 4 45 7 101 7 55 -1 105 1 109 4 13 8 20 60 9 60 -6 0 -8 3
-6 8 3 4 -32 6 -77 6 -64 -1 -83 1 -83 12 0 8 4 14 9 14 5 0 7 4 4 9 -4 5 -3
11 1 13 10 4 67 120 65 131 -1 4 2 7 8 7 6 0 10 6 10 14 0 8 9 31 21 50 12 20
18 36 14 36 -3 0 1 7 9 16 14 14 21 35 17 57 -1 4 6 10 14 13 8 3 12 10 9 15
-3 6 0 16 6 24 7 8 9 15 5 15 -4 0 -2 6 4 14 9 11 9 16 0 22 -9 5 -9 10 2 18
16 12 22 166 6 166 -4 0 -5 5 -2 10 3 6 1 10 -5 10 -6 0 -9 4 -6 8 3 5 -4 16
-15 25 -10 9 -19 13 -19 9 0 -4 -5 0 -10 8 -15 24 -81 19 -131 -11z m113 -118
c4 -48 4 -107 -1 -116 -7 -12 -12 -34 -14 -60 -1 -11 -6 -23 -11 -27 -5 -3
-11 -13 -12 -21 -5 -33 -18 -63 -33 -74 -11 -9 -12 -12 -3 -13 9 0 7 -8 -7
-29 -11 -15 -18 -31 -14 -34 3 -4 -2 -9 -11 -13 -9 -3 -13 -11 -9 -17 3 -5 -1
-15 -9 -21 -8 -6 -15 -13 -15 -16 0 -17 -16 -50 -24 -50 -6 0 -7 -4 -4 -10 3
-5 1 -10 -5 -10 -6 0 -9 -4 -5 -9 3 -5 -1 -15 -8 -23 -7 -7 -16 -20 -19 -29
-5 -12 -22 -16 -80 -16 -40 -1 -77 1 -81 4 -4 3 1 20 13 39 11 20 15 32 9 29
-6 -4 -5 2 3 14 7 12 15 21 19 21 3 0 6 6 7 13 2 25 8 47 16 54 7 7 41 80 45
98 1 6 10 18 18 28 9 9 12 17 7 17 -5 0 -4 4 1 8 6 4 21 30 34 57 37 75 103
175 113 169 4 -3 8 0 8 5 0 17 35 48 53 48 10 0 18 -7 19 -16z m-262 -677 c0
-7 -7 -14 -15 -18 -8 -3 -14 -9 -13 -13 2 -8 -48 -93 -61 -103 -3 -3 -19 -24
-34 -47 -15 -24 -32 -43 -38 -43 -5 0 -7 -5 -4 -10 3 -6 -1 -13 -9 -16 -9 -3
-14 -10 -11 -15 3 -4 -3 -12 -13 -18 -10 -5 -30 -26 -43 -45 -13 -20 -30 -36
-36 -36 -7 0 -12 -5 -10 -11 1 -6 -4 -14 -10 -16 -19 -7 -16 7 12 65 14 29 25
59 25 67 0 8 5 15 11 15 5 0 7 5 3 11 -3 6 -2 14 4 18 7 4 13 18 15 31 2 13 9
26 15 28 7 2 10 8 7 13 -3 5 0 19 7 31 6 13 13 30 14 38 2 8 7 16 13 18 5 2 8
9 5 16 -3 8 2 20 10 29 8 8 13 17 11 19 -2 2 29 4 70 4 50 0 75 -4 75 -12z
m3935 -136 c13 7 25 0 25 -14 0 -8 5 -12 10 -9 9 5 14 -9 8 -18 -2 -2 3 -11
11 -20 7 -9 11 -24 7 -32 -3 -8 0 -15 7 -16 9 0 8 -2 -1 -6 -10 -4 -10 -8 -1
-19 7 -9 7 -14 1 -14 -6 0 -7 -13 -2 -35 4 -19 5 -33 1 -30 -4 2 -8 -12 -9
-31 -1 -19 -5 -40 -9 -47 -4 -7 -6 -20 -5 -29 2 -10 -1 -18 -5 -18 -5 0 -9 -8
-10 -17 -1 -10 -7 -31 -13 -48 -6 -16 -12 -32 -12 -35 -1 -17 -21 -39 -30 -34
-7 4 -8 3 -4 -4 7 -12 -71 -174 -86 -180 -4 -2 -8 -10 -8 -18 0 -9 -4 -13 -9
-10 -5 3 -7 14 -4 24 5 21 -41 82 -63 82 -8 0 -14 6 -14 13 0 8 -3 8 -8 2 -4
-6 -18 -10 -31 -9 -13 1 -32 -7 -42 -17 -11 -11 -19 -16 -19 -11 -1 20 -29
-47 -30 -71 0 -20 -4 -26 -12 -21 -10 6 -10 4 0 -8 9 -12 10 -18 2 -23 -8 -5
-8 -11 1 -21 6 -7 9 -21 5 -29 -3 -8 -2 -15 2 -15 8 0 33 -60 38 -89 2 -7 -6
-16 -17 -18 -10 -3 -19 -9 -19 -14 0 -5 -7 -9 -15 -9 -8 0 -15 -4 -15 -9 0
-10 -36 -24 -62 -24 -10 0 -18 -2 -18 -6 0 -3 -13 -6 -30 -6 -16 0 -30 4 -30
8 0 5 -5 5 -11 1 -19 -11 -69 57 -70 96 -3 89 2 151 12 166 5 6 9 25 11 42 1
17 8 34 15 36 7 3 10 12 7 21 -4 8 -1 22 6 30 7 8 9 15 5 15 -4 0 -1 7 6 16 7
9 15 26 16 37 2 12 8 24 13 25 6 2 10 12 10 22 0 10 5 22 10 25 6 4 8 11 5 16
-4 5 -2 9 4 9 5 0 13 10 17 23 3 12 12 29 19 37 8 8 13 17 13 20 0 10 37 70
45 70 4 0 7 7 7 15 0 9 7 18 15 21 8 4 13 9 10 13 -2 4 24 36 59 72 67 68 106
102 106 94 0 -3 10 3 22 15 12 11 24 20 27 21 3 0 15 3 26 5 11 2 30 6 43 8
12 1 25 6 29 10 4 4 13 -1 21 -11 7 -10 15 -17 17 -15z m2740 12 c5 -8 12 -7
23 2 12 10 16 10 19 1 3 -7 11 -13 18 -13 7 0 19 -10 27 -22 18 -28 40 -90 30
-84 -4 2 -8 -4 -8 -14 0 -10 3 -17 7 -14 4 2 5 -13 3 -33 -2 -21 -6 -60 -9
-88 -3 -27 -9 -52 -14 -55 -4 -3 -7 -17 -7 -32 1 -17 -4 -28 -11 -28 -7 0 -10
-6 -7 -14 3 -8 0 -17 -5 -21 -6 -3 -9 -11 -6 -16 4 -5 1 -9 -4 -9 -6 0 -10 -3
-9 -7 5 -16 -46 -112 -55 -106 -6 3 -7 1 -3 -5 3 -6 -7 -34 -24 -62 -16 -28
-30 -55 -30 -60 0 -6 -6 -10 -14 -10 -9 0 -12 7 -9 19 5 21 -24 74 -37 66 -5
-3 -10 0 -12 7 -7 19 -92 15 -112 -5 -10 -9 -22 -17 -28 -17 -6 0 -9 -3 -6 -6
4 -3 0 -20 -7 -37 -7 -18 -11 -44 -9 -60 1 -15 -1 -25 -6 -22 -5 3 -3 -7 5
-22 8 -15 15 -35 15 -43 0 -9 7 -26 16 -38 15 -21 12 -62 -5 -62 -4 0 -18 -9
-30 -19 -13 -11 -29 -17 -37 -14 -9 3 -14 0 -12 -8 2 -9 -6 -14 -24 -13 -16 0
-28 -3 -28 -7 0 -6 -36 -4 -72 3 -7 2 -23 13 -35 26 -21 21 -26 37 -26 85 0 9
-4 17 -10 17 -5 0 -4 7 3 15 9 11 9 15 1 15 -7 0 -9 5 -6 10 4 6 9 34 12 63 3
29 11 55 17 59 6 4 7 10 4 14 -4 3 -1 22 7 41 8 19 12 40 8 47 -3 6 -2 8 2 4
5 -5 17 15 27 44 10 28 23 55 30 60 7 4 10 8 5 8 -9 0 52 123 67 132 6 4 7 8
2 8 -4 0 3 15 18 34 14 19 26 37 26 41 0 7 14 24 53 65 16 17 26 30 22 30 -3
0 0 6 7 14 7 8 16 12 21 9 4 -2 7 3 7 11 0 9 12 22 28 30 15 8 35 24 45 36 10
11 21 18 26 15 5 -2 12 2 15 11 3 8 10 12 16 9 5 -3 10 -1 10 5 0 6 4 9 8 6 4
-2 14 -1 22 5 20 12 37 11 45 -1z m741 -97 c2 -94 7 -153 15 -168 3 -6 5 -23
4 -40 -1 -16 3 -38 8 -49 7 -14 6 -17 -5 -11 -10 6 -11 5 -1 -5 10 -11 10 -17
0 -29 -9 -11 -9 -13 0 -8 6 4 14 3 17 -2 4 -5 2 -12 -4 -16 -6 -4 -7 -12 -3
-18 12 -18 11 -257 0 -257 -5 0 -4 -7 3 -15 10 -12 10 -15 0 -15 -8 0 -10 -3
-7 -7 4 -3 2 -12 -4 -20 -6 -7 -8 -13 -4 -13 4 0 1 -8 -6 -17 -11 -13 -11 -15
-1 -9 11 7 11 4 0 -13 -7 -12 -16 -21 -21 -21 -4 0 -5 -4 -2 -10 6 -10 -2 -22
-45 -68 -13 -15 -24 -29 -25 -32 0 -3 -3 -4 -7 -3 -5 2 -8 -2 -8 -7 0 -28 -98
54 -102 85 -1 6 -8 16 -15 23 -7 8 -11 18 -8 23 4 5 2 9 -3 9 -10 0 -10 -1
-13 93 -1 37 -6 67 -11 67 -5 0 -8 6 -6 14 2 8 0 14 -3 13 -3 -1 -14 6 -24 16
-13 14 -15 21 -6 30 6 6 11 19 11 29 0 10 3 18 8 18 10 0 32 51 26 61 -3 5 -1
9 4 9 8 0 16 16 20 43 1 4 8 15 17 23 8 9 13 19 10 24 -3 4 2 13 10 20 8 7 12
16 9 21 -3 5 0 9 6 9 6 0 8 5 5 10 -3 6 -2 10 3 10 6 0 13 11 16 25 4 14 11
25 17 25 6 0 8 4 4 9 -3 5 2 16 11 25 8 9 12 20 9 26 -3 5 -1 10 5 10 6 0 8 5
5 10 -3 6 -1 10 5 10 6 0 8 5 5 10 -3 6 -3 10 2 10 9 0 39 61 36 72 -1 3 4 12
12 18 8 7 15 19 15 26 0 8 3 14 8 14 4 0 8 -39 8 -87z m-288 -684 c-7 -4 -6
-9 1 -13 6 -4 11 -16 11 -27 0 -31 39 -101 71 -128 31 -25 40 -57 14 -47 -8 3
-15 2 -15 -3 0 -4 -7 -8 -15 -8 -8 0 -15 5 -15 11 0 6 -5 4 -10 -4 -7 -11 -10
-11 -10 -2 0 7 -5 10 -10 7 -13 -8 -83 63 -75 75 4 6 0 10 -7 10 -9 0 -9 3 2
10 8 5 10 10 4 10 -6 0 -10 10 -8 23 1 12 3 22 4 22 1 0 4 11 6 25 2 13 8 27
12 30 5 3 11 13 15 23 6 15 9 16 21 5 8 -8 10 -15 4 -19z m-6253 11 c-3 -5
-12 -10 -18 -10 -7 0 -6 4 3 10 19 12 23 12 15 0z"/>
<path d="M7968 9818 c-2 -3 -10 -8 -18 -10 -25 -5 -79 -69 -89 -104 -5 -20 -6
-47 -1 -63 4 -16 5 -33 2 -37 -4 -4 -2 -4 5 0 7 3 14 -2 18 -14 4 -11 11 -18
16 -15 5 4 9 1 9 -4 0 -6 9 -11 20 -11 11 0 20 -5 20 -11 0 -7 7 -8 18 -4 9 4
24 8 32 9 9 1 21 5 28 10 6 4 12 4 12 -1 0 -4 20 14 44 41 29 31 42 54 39 64
-4 9 -2 13 3 9 6 -3 9 11 8 35 -1 22 -8 44 -16 49 -7 5 -9 9 -5 9 12 0 -20 30
-32 30 -6 0 -11 4 -11 8 0 5 -6 9 -12 10 -61 6 -88 6 -90 0z"/>
<path d="M12465 9822 c-11 -2 -27 -6 -35 -9 -8 -4 -18 -7 -21 -7 -3 -1 -13 -9
-23 -18 -10 -10 -22 -18 -27 -18 -6 0 -7 -5 -4 -10 3 -6 -1 -13 -9 -16 -9 -3
-14 -10 -11 -14 3 -5 1 -11 -5 -15 -6 -4 -8 -10 -5 -15 3 -5 1 -11 -5 -15 -6
-4 -7 -12 -3 -18 4 -7 8 -19 10 -27 4 -28 25 -57 54 -74 16 -9 29 -14 29 -10
0 3 7 1 15 -6 12 -10 15 -10 15 1 0 11 2 11 10 -1 6 -10 10 -11 10 -2 0 6 8
12 18 12 10 0 23 5 30 12 7 7 12 9 12 5 0 -16 60 54 66 77 3 14 9 26 13 26 7
0 7 40 1 48 -2 1 -3 5 -4 10 -7 26 -31 61 -45 66 -46 17 -68 22 -86 18z"/>
<path d="M15206 8332 c-2 -2 -37 -5 -78 -7 -40 -2 -74 -4 -75 -5 -2 -2 -7 -4
-13 -5 -5 -1 -11 -3 -12 -5 -2 -1 -17 -3 -35 -4 -17 -1 -38 -7 -45 -12 -7 -6
-20 -10 -28 -9 -8 0 -18 -3 -21 -8 -3 -5 -12 -9 -20 -11 -8 -1 -24 -7 -35 -14
-12 -6 -25 -8 -29 -4 -5 4 -5 1 -1 -5 4 -7 2 -14 -3 -14 -6 -1 -14 -2 -18 -3
-19 -3 -113 -67 -113 -76 0 -6 -4 -9 -10 -5 -5 3 -23 -9 -41 -27 -17 -18 -35
-32 -40 -30 -5 1 -9 -4 -9 -12 0 -8 -7 -17 -16 -20 -8 -3 -12 -10 -9 -16 3 -5
0 -10 -7 -10 -7 0 -29 -25 -48 -55 -19 -30 -39 -55 -43 -55 -5 0 -5 -4 -2 -10
3 -5 1 -10 -4 -10 -6 0 -11 -7 -11 -15 0 -8 -4 -15 -10 -15 -5 0 -10 -9 -10
-19 0 -10 -8 -22 -17 -25 -15 -6 -15 -8 -3 -16 12 -8 12 -10 -3 -16 -9 -3 -14
-10 -12 -15 3 -5 -1 -19 -10 -32 -8 -13 -12 -27 -8 -30 3 -4 2 -7 -4 -7 -5 0
-10 -6 -11 -12 0 -7 -4 -26 -7 -43 -4 -16 -8 -43 -10 -60 -2 -16 -4 -30 -5
-30 -1 0 -3 -15 -5 -33 -1 -18 -5 -35 -8 -38 -3 -3 -2 -16 3 -28 4 -13 4 -29
0 -36 -5 -8 -4 -22 2 -33 7 -15 7 -18 -2 -12 -9 5 -9 3 -2 -11 18 -36 1 -50
-63 -52 -33 -1 -71 -5 -85 -8 -14 -3 -41 -8 -60 -11 -19 -3 -41 -10 -49 -17
-12 -9 -13 -8 -6 4 6 12 5 13 -6 3 -7 -7 -23 -13 -36 -13 -13 0 -23 -4 -23
-10 0 -5 -11 -10 -24 -10 -13 0 -29 -7 -36 -15 -6 -8 -15 -14 -18 -13 -13 3
-52 -13 -52 -22 0 -4 -7 -7 -16 -6 -9 1 -27 -7 -39 -18 -36 -33 -55 -47 -55
-42 0 3 -13 -7 -28 -22 -16 -15 -42 -39 -58 -53 -16 -15 -40 -41 -54 -58 -14
-18 -33 -42 -42 -54 -10 -12 -21 -26 -25 -32 -5 -5 -19 -34 -33 -62 -14 -29
-28 -53 -33 -53 -4 0 -6 -4 -2 -9 3 -5 -1 -16 -9 -24 -8 -8 -13 -17 -10 -20 3
-3 0 -16 -7 -29 -7 -12 -14 -30 -15 -38 0 -8 -5 -26 -11 -40 -6 -14 -9 -35 -7
-47 3 -13 1 -23 -4 -23 -10 0 -11 -1 -15 -120 -2 -52 0 -103 5 -112 6 -13 5
-18 -4 -18 -8 0 -9 -3 -3 -8 13 -9 18 -28 18 -69 1 -18 5 -33 10 -33 4 0 5 -4
2 -10 -3 -5 -2 -10 4 -10 5 0 8 -8 6 -17 -1 -10 2 -23 7 -29 5 -7 11 -22 13
-34 6 -32 29 -80 37 -80 5 0 8 -3 7 -7 -2 -16 14 -53 22 -53 5 0 9 -7 9 -15 0
-8 5 -15 10 -15 6 0 10 -7 10 -15 0 -8 5 -15 10 -15 6 0 10 -6 10 -12 0 -7 21
-35 45 -61 25 -27 45 -52 45 -58 0 -5 3 -8 8 -7 4 2 26 -15 50 -37 24 -22 47
-40 53 -40 5 0 13 -4 17 -10 4 -5 16 -17 26 -25 18 -13 19 -13 11 0 -4 8 3 5
16 -6 29 -25 135 -75 143 -66 3 3 6 0 6 -7 0 -6 6 -11 13 -10 23 3 38 -1 33
-9 -3 -5 12 -8 32 -8 20 0 36 -4 35 -9 -1 -6 28 -10 63 -10 35 0 64 -3 64 -6
0 -3 33 -4 73 -2 39 3 90 5 112 6 22 1 46 9 53 17 8 8 11 9 7 3 -3 -7 -1 -13
4 -13 6 0 11 4 11 9 0 5 8 8 18 6 9 -1 23 2 30 8 6 5 12 6 12 2 0 -4 7 -2 15
5 8 6 18 9 24 6 5 -4 15 -1 23 6 7 7 22 15 33 16 11 2 22 8 23 13 2 5 10 9 18
9 8 0 14 5 14 12 0 6 3 8 6 5 8 -7 56 18 92 48 13 11 26 19 28 17 7 -4 161
152 168 171 3 10 11 15 16 12 6 -4 9 -3 8 2 -3 11 20 53 43 78 10 11 18 23 19
27 0 10 33 81 40 88 4 4 7 17 13 55 1 6 5 12 9 15 4 3 10 17 12 30 2 14 5 25
6 25 3 0 9 40 12 75 2 19 8 38 13 42 6 5 4 8 -4 8 -11 0 -10 4 5 16 10 8 13
13 7 9 -9 -4 -13 1 -13 15 0 13 4 19 12 14 7 -5 8 -3 4 5 -5 7 -8 28 -8 47 0
23 -4 32 -11 27 -7 -4 -6 1 2 10 10 13 10 17 1 17 -9 0 -10 3 -1 13 6 8 8 16
5 19 -2 3 12 6 33 6 21 0 40 1 43 2 3 1 16 3 30 6 14 2 39 7 55 10 17 3 44 7
60 9 17 1 51 12 78 24 26 11 48 20 50 20 1 0 15 4 30 10 16 6 33 11 38 11 5 0
9 5 9 10 0 6 9 10 20 10 11 0 20 5 20 11 0 6 7 9 15 5 8 -3 15 -1 15 4 0 6 20
23 45 38 25 16 42 31 39 35 -4 4 0 7 9 7 9 0 23 10 31 22 9 12 16 19 16 15 0
-8 41 34 80 83 14 17 30 36 36 43 16 19 39 61 36 70 -1 4 5 7 13 7 8 0 15 3
14 8 -1 4 2 16 5 27 4 11 7 25 8 30 1 6 7 15 15 20 8 6 15 20 16 33 0 12 5 22
10 22 4 0 7 8 5 18 -2 9 2 16 9 15 7 -2 10 8 8 25 -1 15 2 33 7 39 6 7 11 34
12 60 0 28 7 53 15 59 11 8 11 13 2 18 -9 6 -9 11 0 22 11 14 9 61 -5 99 -6
16 -6 17 3 5 14 -20 14 -4 0 22 -6 11 -12 42 -14 69 -1 27 -8 55 -14 63 -6 7
-9 15 -6 18 14 14 -83 235 -122 277 -12 14 -20 28 -17 33 3 4 -3 8 -12 8 -10
0 -15 3 -11 6 9 9 -96 124 -113 124 -6 0 -10 7 -10 16 0 8 -4 13 -8 10 -5 -3
-19 5 -33 18 -25 23 -69 50 -101 62 -10 3 -18 11 -18 16 0 5 -4 6 -10 3 -5 -3
-10 -1 -10 5 0 7 -6 10 -14 7 -8 -3 -16 -1 -18 4 -2 6 -10 11 -18 13 -8 2 -26
8 -40 13 -14 6 -28 9 -32 6 -5 -2 -8 1 -8 7 0 6 -4 9 -9 5 -5 -3 -12 -1 -16 4
-3 5 -14 8 -25 6 -11 -2 -20 -1 -20 4 0 7 -45 13 -112 15 -21 1 -38 3 -38 7 0
6 -48 7 -54 1z m77 -191 c16 0 26 -4 24 -8 -3 -5 14 -8 36 -7 23 1 48 -3 55
-9 7 -5 22 -11 35 -12 37 -4 38 -5 31 -17 -4 -6 -3 -8 4 -5 9 6 108 -37 122
-53 3 -3 21 -17 40 -30 77 -53 188 -180 182 -207 -2 -7 5 -13 14 -13 12 0 15
-6 12 -25 -3 -14 -1 -23 6 -22 6 1 11 -8 10 -20 0 -12 4 -21 10 -20 6 1 11
-10 10 -25 0 -16 4 -28 9 -28 4 0 5 -4 2 -10 -3 -5 -2 -10 4 -10 5 0 10 -8 9
-17 0 -10 3 -29 7 -43 12 -46 13 -194 1 -209 -8 -12 -8 -13 2 -7 6 4 12 2 12
-3 0 -6 -4 -11 -8 -11 -4 0 -9 -14 -10 -31 -1 -18 -6 -37 -9 -42 -4 -6 -8 -22
-9 -35 -2 -13 -10 -35 -19 -48 -9 -14 -13 -29 -10 -33 3 -5 1 -11 -4 -13 -5
-1 -11 -9 -13 -17 -2 -8 -11 -25 -22 -37 -10 -12 -19 -26 -19 -31 -1 -8 -24
-35 -78 -94 -15 -16 -29 -26 -32 -23 -3 3 -8 -3 -11 -13 -3 -10 -24 -29 -46
-43 -22 -14 -40 -28 -40 -31 0 -4 -11 -10 -25 -13 -14 -4 -25 -11 -25 -16 0
-5 -7 -7 -15 -4 -8 4 -15 1 -15 -5 0 -6 -9 -11 -20 -11 -11 0 -20 -4 -20 -8 0
-5 -6 -9 -12 -10 -31 -2 -62 -12 -69 -23 -5 -8 -8 -8 -13 0 -5 8 -13 8 -27 1
-11 -6 -24 -8 -29 -5 -6 3 -10 2 -10 -4 0 -5 -11 -8 -25 -6 -14 1 -28 -1 -30
-5 -3 -5 -13 -7 -23 -5 -9 2 -35 4 -57 4 -38 1 -42 4 -55 39 -7 20 -12 39 -11
41 2 2 -2 7 -7 10 -12 8 -57 94 -54 104 1 5 -2 6 -7 3 -5 -4 -17 12 -27 33
-10 22 -20 39 -24 38 -4 -1 -20 14 -36 33 -16 19 -37 41 -47 48 -10 8 -29 25
-42 38 -14 14 -25 23 -25 20 0 -3 -12 6 -26 19 -15 14 -32 25 -39 25 -6 0 -20
8 -31 18 -28 24 -61 42 -79 42 -8 0 -15 5 -15 11 0 5 -4 7 -10 4 -5 -3 -10 -1
-10 6 0 7 -3 10 -6 6 -4 -3 -19 0 -35 9 -16 8 -32 15 -36 15 -19 2 -31 16 -37
44 -11 44 -15 175 -5 175 5 0 5 7 2 17 -5 11 -3 14 6 8 10 -6 11 -3 2 13 -7
14 -8 23 -1 27 6 4 8 10 5 15 -3 5 1 25 9 45 8 19 16 39 18 43 2 4 6 6 9 5 3
-1 4 9 1 22 -2 15 0 25 7 25 6 0 11 8 11 18 0 10 8 27 18 38 9 11 26 35 36 54
25 45 147 164 186 182 16 7 30 15 30 19 0 3 16 11 35 19 19 8 35 18 35 24 0 5
3 7 6 3 4 -3 18 0 33 7 14 7 34 12 44 11 9 -2 17 2 17 9 0 8 15 12 40 11 22
-1 40 2 40 7 0 4 7 5 15 2 8 -4 15 -2 15 2 0 8 51 9 153 5z m-1069 -1012 c-4
-8 -1 -8 12 -1 11 5 44 9 75 10 48 0 58 -3 75 -25 10 -14 19 -29 19 -32 2 -20
46 -101 55 -101 6 0 9 -4 6 -9 -3 -4 3 -19 14 -31 11 -13 20 -27 20 -31 0 -5
16 -24 35 -44 20 -19 33 -35 30 -35 -3 0 0 -6 7 -14 7 -8 14 -13 16 -11 2 1
24 -17 50 -41 26 -24 55 -47 65 -50 9 -3 17 -9 17 -13 0 -4 18 -16 40 -26 22
-10 40 -22 40 -27 0 -4 3 -7 8 -6 7 2 84 -31 135 -58 15 -9 27 -12 27 -8 0 3
6 1 13 -5 8 -6 16 -9 18 -7 9 9 1 -261 -8 -279 -6 -11 -9 -28 -8 -37 2 -9 -4
-19 -12 -22 -8 -3 -11 -10 -8 -16 3 -5 -2 -27 -12 -47 -10 -21 -18 -40 -18
-43 -1 -12 -40 -70 -48 -70 -4 0 -6 -4 -3 -8 2 -4 -9 -23 -25 -41 -16 -19 -29
-38 -29 -42 0 -5 -7 -9 -16 -9 -8 0 -13 -4 -10 -8 3 -5 -7 -17 -22 -28 -14
-10 -41 -32 -59 -48 -18 -15 -33 -24 -33 -20 0 4 -7 -1 -15 -12 -8 -10 -15
-15 -15 -10 0 6 -7 1 -15 -10 -8 -10 -15 -15 -15 -10 0 4 -11 1 -25 -8 -14 -9
-25 -14 -25 -10 0 3 -10 0 -22 -8 -13 -8 -30 -14 -38 -13 -8 0 -18 -3 -21 -8
-3 -5 -25 -10 -49 -12 -23 -1 -46 -9 -51 -16 -7 -11 -9 -11 -9 -1 0 8 -5 10
-12 5 -18 -10 -178 -11 -178 -1 0 5 -4 7 -9 3 -5 -3 -12 -1 -15 3 -3 5 -17 7
-31 4 -15 -2 -25 0 -25 7 0 7 -4 9 -10 6 -5 -3 -10 -2 -10 3 0 5 -11 8 -25 7
-14 -2 -25 1 -25 6 0 5 -7 9 -15 9 -17 0 -107 48 -116 62 -3 6 -10 10 -15 10
-5 0 -8 4 -6 10 1 5 -1 7 -6 4 -5 -3 -29 13 -53 34 -24 22 -47 40 -51 40 -5 0
-8 4 -8 9 0 6 -13 24 -29 42 -17 18 -35 45 -42 61 -6 15 -16 28 -21 28 -5 0
-7 4 -3 9 3 5 -1 15 -8 23 -7 7 -20 34 -27 61 -8 26 -18 47 -23 47 -5 0 -7 6
-4 13 2 6 -1 26 -8 42 -6 17 -11 51 -11 78 1 26 -2 47 -6 47 -4 0 -3 14 2 30
6 21 5 30 -3 30 -8 0 -8 3 -2 8 6 4 10 25 10 47 -1 36 8 84 23 125 3 8 4 18 4
23 -1 4 3 7 10 7 6 0 9 3 5 6 -3 4 0 19 8 34 8 15 11 30 8 34 -4 3 -1 6 5 6 7
0 12 7 12 15 0 8 5 15 10 15 6 0 10 7 10 16 0 8 6 21 13 29 6 7 23 27 36 45
23 30 75 83 103 105 52 40 86 63 106 69 12 4 22 12 22 18 0 5 7 8 15 4 8 -3
18 2 23 10 5 9 12 16 15 15 8 -1 20 2 67 17 19 6 53 13 74 17 22 3 42 8 45 10
8 9 12 5 5 -6z m438 -88 c7 -10 16 -18 20 -17 8 1 52 -30 74 -51 7 -7 18 -13
24 -13 6 0 8 -4 5 -10 -3 -5 1 -10 10 -10 8 0 19 -8 22 -17 4 -10 14 -25 23
-33 9 -8 26 -30 39 -48 l24 -34 -42 21 c-22 12 -41 26 -41 32 0 6 -4 8 -9 4
-6 -3 -14 3 -20 12 -6 10 -11 14 -11 10 0 -14 -138 133 -143 153 -6 25 8 26
25 1z"/>
<path d="M2060 7663 c0 -4 -24 -7 -52 -5 -61 3 -126 -6 -112 -16 11 -8 12 -82
1 -99 -4 -6 -2 -15 4 -19 8 -5 9 -3 4 6 -6 9 -4 11 5 5 10 -6 9 -11 -5 -22
-11 -7 -14 -13 -9 -13 12 0 12 -50 0 -69 -6 -10 -5 -12 2 -7 7 4 12 3 12 -3 0
-5 9 -8 20 -6 11 2 20 -2 20 -8 0 -8 3 -8 8 -2 4 6 21 11 37 11 17 0 33 -5 37
-11 5 -7 8 -6 8 1 0 6 7 11 15 11 8 0 15 -5 15 -11 0 -7 3 -8 8 -1 4 6 16 11
27 11 11 0 23 -5 27 -11 5 -7 8 -6 8 1 0 12 38 13 58 1 6 -5 12 -4 12 2 0 7 8
7 24 1 13 -5 27 -6 30 -2 12 11 36 10 36 -1 0 -8 3 -8 8 -2 8 12 22 13 38 3 6
-4 14 -4 18 0 12 11 66 10 66 -2 0 -7 3 -8 8 -1 8 12 27 13 38 3 4 -4 14 -2
22 5 18 14 22 13 33 -5 5 -7 9 -8 9 -2 0 12 45 13 56 1 4 -4 14 -1 22 6 18 14
22 13 33 -5 6 -8 9 -9 9 -1 0 9 26 11 38 3 1 -1 11 -2 22 -2 11 0 21 1 23 2
11 8 37 6 37 -3 0 -8 3 -7 9 1 9 15 20 15 37 1 6 -5 14 -6 18 -2 12 12 66 11
66 -1 0 -7 3 -8 8 -1 4 6 21 11 37 11 17 0 33 -5 37 -11 5 -6 8 -6 8 2 0 12
24 12 36 0 4 -4 12 -3 18 2 17 14 28 14 37 -1 5 -7 9 -8 9 -2 0 12 38 13 58 1
6 -5 12 -4 12 2 0 7 8 7 24 1 13 -5 27 -6 30 -2 12 11 36 10 36 -1 0 -8 3 -7
9 1 9 15 20 15 37 1 6 -5 14 -6 18 -2 12 12 66 11 66 -1 0 -7 3 -8 8 -1 8 12
22 13 38 3 6 -4 14 -4 18 0 11 10 30 9 38 -3 5 -7 8 -6 8 1 0 12 38 13 56 1 6
-3 14 -3 18 0 12 12 36 12 36 0 0 -8 3 -8 8 -2 6 10 23 12 37 5 6 -3 44 -3 48
0 11 8 37 6 37 -3 0 -8 3 -7 9 1 11 18 15 19 33 5 8 -7 18 -10 22 -6 12 12 66
11 66 -1 0 -7 3 -8 8 -1 8 12 27 13 38 3 4 -4 12 -4 18 1 17 14 28 14 37 -1 5
-7 9 -8 9 -2 0 12 45 13 56 1 4 -4 14 -1 22 6 18 14 22 13 33 -5 6 -8 9 -9 9
-1 0 12 24 12 36 0 4 -4 14 -1 22 6 18 14 22 13 33 -5 6 -8 9 -9 9 -1 0 12 24
12 36 0 4 -4 14 -1 22 6 18 14 22 13 33 -5 5 -7 9 -8 9 -2 0 12 45 13 56 1 4
-4 14 -1 22 6 18 14 22 13 33 -5 6 -8 9 -9 9 -1 0 12 24 12 36 0 4 -4 14 -1
22 6 18 14 22 13 33 -5 6 -8 9 -9 9 -1 0 12 24 12 36 0 4 -4 12 -3 18 2 17 14
28 14 37 -1 5 -7 9 -8 9 -2 0 12 38 13 56 1 6 -3 14 -3 18 0 12 12 36 12 36 0
0 -8 3 -8 8 -2 8 12 22 13 38 3 6 -4 14 -4 18 -1 12 12 36 12 36 0 0 -8 3 -8
8 -2 8 12 22 13 38 3 6 -4 14 -4 18 0 11 10 30 9 38 -3 5 -7 8 -6 8 1 0 12 38
13 56 1 6 -3 14 -3 18 0 12 12 36 12 36 0 0 -8 3 -8 8 -2 6 10 23 12 37 5 6
-3 44 -3 48 0 11 8 37 6 37 -3 0 -8 3 -8 8 -2 8 12 22 13 38 3 6 -4 14 -4 18
0 12 11 66 10 66 -2 0 -7 3 -8 8 -1 8 12 22 13 38 3 6 -4 14 -4 18 0 11 10 30
9 38 -3 5 -7 8 -6 8 1 0 12 38 13 56 1 6 -3 14 -3 18 0 12 12 36 12 36 0 0 -8
3 -8 8 -2 6 10 23 12 37 5 6 -3 44 -3 48 0 11 8 37 6 37 -3 0 -8 3 -7 9 1 9
15 20 15 37 1 6 -5 14 -6 18 -2 12 12 66 11 66 -1 0 -7 3 -8 8 -1 4 6 21 11
37 11 17 0 33 -5 37 -11 5 -6 8 -6 8 2 0 12 24 12 36 0 4 -4 14 -1 22 6 18 14
22 13 33 -5 5 -7 9 -8 9 -2 0 12 38 13 58 1 6 -5 12 -4 12 2 0 7 8 7 24 1 13
-5 27 -6 30 -2 12 11 36 10 36 -1 0 -8 3 -7 9 1 11 18 15 19 33 5 8 -7 18 -10
22 -6 12 12 66 11 66 -1 0 -7 3 -8 8 -1 8 12 27 13 38 3 4 -4 14 -2 22 5 18
14 22 13 33 -5 5 -7 9 -8 9 -2 0 12 45 13 56 1 4 -4 14 -1 22 6 18 14 22 13
33 -5 6 -8 9 -9 9 -1 0 9 26 11 38 3 1 -1 11 -2 22 -2 11 0 21 1 23 2 11 8 37
6 37 -3 0 -8 3 -7 9 1 11 18 15 19 33 5 8 -7 18 -10 22 -6 12 12 66 11 66 -1
0 -7 3 -8 8 -1 4 6 21 11 37 11 17 0 33 -5 37 -11 5 -6 8 -6 8 2 0 12 24 12
36 0 4 -4 14 -1 22 6 18 14 22 13 33 -5 5 -7 9 -8 9 -2 0 12 38 13 58 1 6 -5
12 -4 12 2 0 7 8 7 24 1 13 -5 27 -6 30 -2 12 11 36 10 36 -1 0 -8 3 -7 9 1
11 18 15 19 33 5 8 -7 18 -10 22 -6 12 12 66 11 66 -1 0 -7 3 -8 8 -1 8 12 22
13 38 3 6 -4 14 -4 18 0 11 10 30 9 38 -3 5 -7 8 -6 8 1 0 12 38 13 56 1 6 -3
14 -3 18 0 12 12 36 12 36 0 0 -8 3 -8 8 -2 6 10 23 12 37 5 6 -3 44 -3 48 0
11 8 37 6 37 -3 0 -8 3 -8 8 -2 8 12 22 13 38 3 6 -4 14 -4 18 0 12 11 66 10
66 -2 0 -7 3 -8 8 -1 8 12 22 13 38 3 6 -4 14 -4 18 0 11 10 30 9 38 -3 5 -7
8 -6 8 1 0 12 38 13 56 1 6 -3 14 -3 18 0 12 12 36 12 36 0 0 -8 3 -8 8 -2 8
12 22 13 38 3 6 -4 14 -4 18 -1 12 12 36 12 36 0 0 -8 3 -8 8 -2 8 12 22 13
38 3 6 -4 14 -4 18 0 11 10 30 9 38 -3 5 -7 8 -6 8 1 0 12 38 13 56 1 6 -3 14
-3 18 0 12 12 36 12 36 0 0 -8 3 -8 8 -2 8 12 22 13 38 3 6 -4 14 -4 18 -1 12
12 36 12 36 0 0 -8 3 -8 8 -2 8 12 22 13 38 3 6 -4 14 -4 18 0 11 10 30 9 38
-3 5 -7 8 -6 8 1 0 12 38 13 56 1 6 -3 14 -3 18 0 12 12 36 12 36 0 0 -8 3 -8
8 -2 8 12 22 13 38 3 6 -4 14 -4 18 -1 12 12 36 12 36 0 0 -8 3 -8 8 -2 8 12
22 13 38 3 6 -4 14 -4 18 0 11 10 30 9 38 -3 5 -7 8 -6 8 1 0 12 38 13 56 1 6
-3 14 -3 18 0 12 12 36 12 36 0 0 -8 3 -8 8 -2 6 10 23 12 37 5 6 -3 44 -3 48
0 11 8 37 6 37 -3 0 -8 3 -8 8 -2 8 12 22 13 38 3 6 -4 14 -4 18 0 12 11 66
10 66 -2 0 -7 3 -8 8 -1 8 12 22 13 38 3 6 -4 14 -4 18 0 11 10 30 9 38 -3 5
-7 8 -6 8 1 0 12 45 13 56 1 4 -4 14 -1 22 6 18 14 22 13 33 -5 6 -8 9 -9 9
-1 0 9 26 11 38 3 3 -3 41 -3 45 0 11 8 37 6 37 -3 0 -8 3 -7 9 1 11 18 15 19
33 5 8 -7 18 -10 22 -6 12 12 66 11 66 -1 0 -7 3 -8 8 -1 4 6 21 11 37 11 17
0 33 -5 37 -11 5 -6 8 -6 8 2 0 12 24 12 36 0 4 -4 14 -1 22 6 18 14 22 13 33
-5 5 -7 9 -8 9 -2 0 12 38 13 58 1 6 -5 12 -4 12 2 0 7 8 7 24 1 13 -5 27 -6
30 -2 12 11 36 10 36 -1 0 -8 3 -7 9 1 11 18 15 19 33 5 8 -7 18 -10 22 -6 12
12 66 11 66 -1 0 -7 3 -8 8 -1 8 12 27 13 38 3 4 -4 14 -2 22 5 18 14 22 13
33 -5 5 -7 9 -8 9 -2 0 12 45 13 56 1 4 -4 14 -1 22 6 18 14 22 13 33 -5 6 -8
9 -9 9 -1 0 9 26 11 38 3 1 -1 11 -2 22 -2 11 0 21 1 23 2 11 8 37 6 37 -3 0
-8 3 -7 9 1 11 18 15 19 33 5 8 -7 18 -10 22 -6 12 12 66 11 66 -1 0 -7 3 -8
8 -1 4 6 21 11 37 11 17 0 33 -5 37 -11 5 -6 8 -6 8 2 0 12 24 12 36 0 4 -4
12 -3 18 2 17 14 28 14 37 -1 5 -7 9 -8 9 -2 0 12 38 13 58 1 6 -5 12 -4 12 2
0 7 8 7 24 1 13 -5 27 -6 30 -2 12 11 36 10 36 -1 0 -8 3 -7 9 1 11 18 15 19
33 5 8 -7 18 -10 22 -6 12 12 66 11 66 -1 0 -7 3 -8 8 -1 8 12 27 13 38 3 4
-4 14 -2 22 5 18 14 22 13 33 -5 5 -7 9 -8 9 -2 0 12 45 13 56 1 4 -4 12 -3
18 2 17 14 28 14 37 -1 6 -8 9 -9 9 -1 0 9 26 11 38 3 1 -1 11 -2 22 -2 11 0
21 1 23 2 11 8 37 6 37 -3 0 -8 3 -7 9 1 11 18 15 19 33 5 8 -7 18 -10 22 -6
12 12 66 11 66 -1 0 -7 3 -8 8 -1 8 12 27 13 38 3 4 -4 14 -2 22 5 18 14 22
13 33 -5 5 -7 9 -8 9 -2 0 12 45 13 56 1 4 -4 14 -1 22 6 18 14 22 13 33 -5 6
-8 9 -9 9 -1 0 12 24 12 36 0 4 -4 14 -1 22 6 18 14 22 13 33 -5 6 -8 9 -9 9
-1 0 12 24 12 36 0 4 -4 12 -3 18 2 17 14 28 14 37 -1 5 -7 9 -8 9 -2 0 12 45
13 56 1 4 -4 12 -3 18 2 17 14 28 14 37 -1 6 -8 9 -9 9 -1 0 12 24 12 36 0 4
-4 14 -1 22 6 18 14 22 13 33 -5 6 -8 9 -9 9 -1 0 12 24 12 36 0 4 -4 14 -1
22 6 18 14 22 13 33 -5 5 -7 9 -8 9 -2 0 12 38 13 56 1 6 -3 14 -3 18 0 12 12
36 12 36 0 0 -8 3 -8 8 -2 8 12 22 13 38 3 6 -4 14 -4 18 -1 12 12 36 12 36 0
0 -8 3 -8 8 -2 8 12 22 13 38 3 6 -4 14 -4 18 0 11 10 30 9 38 -3 5 -7 8 -6 8
1 0 12 38 13 56 1 6 -3 14 -3 18 0 12 12 36 12 36 0 0 -8 3 -8 8 -2 6 10 23
12 37 5 6 -3 44 -3 48 0 11 8 37 6 37 -3 0 -8 3 -8 8 -2 8 12 22 13 38 3 6 -4
14 -4 18 0 12 11 66 10 66 -2 0 -7 3 -8 8 -1 8 12 22 13 38 3 6 -4 14 -4 18 0
11 10 30 9 38 -3 5 -7 8 -6 8 1 0 12 38 13 56 1 6 -3 14 -3 18 0 12 12 36 12
36 0 0 -8 3 -8 8 -2 6 10 23 12 37 5 6 -3 44 -3 48 0 11 8 37 6 37 -3 0 -8 3
-8 8 -2 8 12 22 13 38 3 6 -4 14 -4 18 0 12 11 66 10 66 -1 0 -7 4 -7 11 0 6
6 19 9 28 6 9 -4 13 -3 9 2 -4 4 -3 14 3 22 8 8 8 13 1 13 -11 0 -11 18 1 38
5 6 4 12 -1 12 -10 0 -9 30 2 48 4 6 3 12 -2 12 -12 0 -10 43 3 52 6 5 5 8 -2
8 -7 0 -10 6 -7 13 3 8 -2 20 -11 27 -8 7 -15 9 -15 4 0 -5 -11 -9 -25 -9 -14
0 -25 5 -25 10 0 7 -3 7 -8 0 -4 -5 -23 -10 -42 -10 -19 0 -38 5 -42 10 -5 6
-8 4 -8 -5 0 -13 -1 -13 -10 0 -5 8 -10 11 -10 5 0 -11 -71 -12 -89 -1 -6 4
-11 1 -11 -6 0 -9 -3 -9 -10 2 -5 8 -10 11 -10 5 0 -6 -32 -10 -75 -10 -41 0
-75 3 -75 6 0 4 -18 3 -39 -1 -25 -4 -44 -3 -50 3 -7 7 -11 7 -11 1 0 -12 -73
-12 -82 1 -5 6 -8 4 -8 -5 0 -13 -1 -13 -10 0 -5 8 -10 11 -10 5 0 -11 -112
-11 -129 0 -6 3 -11 3 -11 -2 0 -4 -46 -7 -102 -5 -124 3 -171 2 -176 -3 -3
-2 -13 0 -23 6 -11 5 -19 6 -19 2 0 -4 -46 -7 -102 -5 -124 3 -171 2 -176 -3
-3 -2 -13 0 -23 6 -11 5 -19 6 -19 2 0 -4 -46 -7 -102 -5 -124 3 -171 2 -176
-3 -3 -2 -13 0 -23 6 -11 5 -19 6 -19 2 0 -9 -198 -9 -207 0 -3 3 -15 2 -28
-3 -14 -5 -26 -5 -34 3 -8 8 -11 7 -11 -3 0 -13 -2 -13 -10 0 -5 8 -10 11 -10
5 0 -6 -32 -10 -75 -10 -41 0 -75 3 -75 6 0 4 -18 3 -39 -1 -25 -4 -44 -3 -50
3 -7 7 -11 7 -11 1 0 -12 -73 -12 -82 1 -5 6 -8 4 -8 -5 0 -13 -1 -13 -10 0
-5 8 -10 11 -10 5 0 -11 -71 -12 -89 -1 -6 4 -11 1 -11 -6 0 -9 -3 -9 -10 2
-5 8 -10 11 -10 5 0 -6 -32 -10 -75 -10 -41 0 -75 3 -75 6 0 4 -18 3 -39 -1
-25 -4 -44 -3 -50 3 -7 7 -11 7 -11 1 0 -12 -73 -12 -82 1 -5 6 -8 4 -8 -5 0
-13 -1 -13 -10 0 -5 8 -10 11 -10 5 0 -11 -71 -12 -89 -1 -6 4 -11 1 -11 -6 0
-9 -3 -9 -10 2 -5 8 -10 11 -10 5 0 -6 -32 -10 -75 -10 -41 0 -75 3 -75 6 0 4
-18 3 -39 -1 -25 -4 -44 -3 -50 3 -7 7 -11 7 -11 1 0 -12 -73 -12 -82 1 -5 6
-8 4 -8 -5 0 -13 -1 -13 -10 0 -5 8 -10 11 -10 5 0 -11 -71 -12 -89 -1 -6 4
-11 1 -11 -6 0 -9 -3 -9 -10 2 -5 8 -10 11 -10 5 0 -6 -32 -10 -75 -10 -41 0
-75 3 -75 6 0 4 -18 3 -39 -1 -25 -4 -44 -3 -50 3 -7 7 -11 7 -11 1 0 -12 -73
-12 -82 1 -5 6 -8 4 -8 -5 0 -13 -1 -13 -10 0 -5 8 -10 11 -10 5 0 -11 -71
-12 -89 -1 -6 4 -11 1 -11 -6 0 -9 -3 -9 -10 2 -5 8 -10 11 -10 5 0 -6 -32
-10 -75 -10 -41 0 -75 3 -75 6 0 4 -18 3 -39 -1 -25 -4 -44 -3 -50 3 -7 7 -11
7 -11 1 0 -12 -73 -12 -82 1 -5 6 -8 4 -8 -5 0 -13 -1 -13 -10 0 -5 8 -10 11
-10 5 0 -11 -71 -12 -89 -1 -6 4 -11 1 -11 -6 0 -9 -3 -9 -10 2 -5 8 -10 11
-10 5 0 -10 -139 -11 -165 -1 -8 3 -15 2 -15 -2 0 -4 -46 -6 -102 -4 -124 3
-171 2 -176 -3 -3 -2 -13 0 -23 6 -11 5 -19 6 -19 2 0 -4 -46 -7 -102 -5 -124
3 -171 2 -176 -3 -3 -2 -13 0 -23 6 -11 5 -19 6 -19 2 0 -4 -46 -7 -102 -5
-124 3 -171 2 -176 -3 -3 -2 -13 0 -23 6 -11 5 -19 6 -19 2 0 -4 -46 -7 -102
-5 -129 3 -169 3 -180 -4 -4 -3 -8 -1 -8 4 0 5 -17 6 -39 2 -25 -4 -44 -3 -50
3 -7 7 -11 7 -11 1 0 -12 -73 -12 -82 1 -5 6 -8 4 -8 -5 0 -13 -1 -13 -10 0
-5 8 -10 11 -10 5 0 -11 -71 -12 -89 -1 -6 4 -11 1 -11 -6 0 -9 -3 -9 -10 2
-5 8 -10 11 -10 5 0 -6 -32 -10 -75 -10 -41 0 -75 3 -75 6 0 4 -18 3 -39 -1
-25 -4 -44 -3 -50 3 -7 7 -11 7 -11 1 0 -12 -73 -12 -82 1 -5 6 -8 4 -8 -5 0
-13 -1 -13 -10 0 -5 8 -10 11 -10 5 0 -11 -71 -12 -89 -1 -6 4 -11 1 -11 -6 0
-9 -3 -9 -10 2 -5 8 -10 11 -10 5 0 -6 -32 -10 -75 -10 -41 0 -75 3 -75 6 0 4
-18 3 -39 -1 -25 -4 -44 -3 -50 3 -6 6 -11 7 -11 1 0 -5 -18 -9 -40 -9 -22 0
-40 5 -40 10 0 6 -5 3 -10 -5 -9 -13 -10 -13 -10 0 0 9 -3 11 -8 5 -7 -11
-112 -14 -112 -4 0 4 -18 3 -39 -1 -25 -4 -44 -3 -50 3 -7 7 -11 7 -11 1 0
-12 -73 -12 -82 1 -5 6 -8 4 -8 -5 0 -13 -1 -13 -10 0 -5 8 -10 11 -10 5 0
-11 -71 -12 -89 -1 -6 4 -11 1 -11 -6 0 -9 -3 -9 -10 2 -5 8 -10 11 -10 5 0
-6 -32 -10 -75 -10 -41 0 -75 3 -75 6 0 4 -18 3 -39 -1 -25 -4 -44 -3 -50 3
-7 7 -11 7 -11 1 0 -12 -73 -12 -82 1 -5 6 -8 4 -8 -5 0 -13 -1 -13 -10 0 -5
8 -10 11 -10 5 0 -11 -71 -12 -89 -1 -6 4 -11 1 -11 -6 0 -9 -3 -9 -10 2 -5 8
-10 11 -10 5 0 -6 -32 -10 -75 -10 -41 0 -75 3 -75 6 0 4 -18 3 -39 -1 -25 -4
-44 -3 -50 3 -7 7 -11 7 -11 1 0 -12 -73 -12 -82 1 -5 6 -8 4 -8 -5 0 -13 -1
-13 -10 0 -5 8 -10 11 -10 5 0 -11 -112 -11 -129 0 -6 3 -11 3 -11 -2 0 -4
-46 -7 -102 -5 -124 3 -171 2 -176 -3 -3 -2 -13 0 -23 6 -11 5 -19 6 -19 2 0
-4 -46 -7 -102 -5 -124 3 -171 2 -176 -3 -3 -2 -13 0 -23 6 -11 5 -19 6 -19 2
0 -4 -46 -7 -102 -5 -124 3 -171 2 -176 -3 -3 -2 -13 0 -23 6 -11 5 -19 6 -19
2 0 -9 -198 -9 -207 0 -3 3 -15 2 -28 -3 -14 -5 -26 -5 -34 3 -8 8 -11 7 -11
-3 0 -13 -2 -13 -10 0 -5 8 -10 11 -10 5 0 -6 -32 -10 -75 -10 -41 0 -75 3
-75 6 0 4 -18 3 -39 -1 -25 -4 -44 -3 -50 3 -7 7 -11 7 -11 1 0 -12 -73 -12
-82 1 -5 6 -8 4 -8 -5 0 -13 -1 -13 -10 0 -5 8 -10 11 -10 5 0 -11 -71 -12
-89 -1 -6 4 -11 1 -11 -6 0 -9 -3 -9 -10 2 -5 8 -10 11 -10 5 0 -6 -32 -10
-75 -10 -41 0 -75 3 -75 6 0 4 -18 3 -39 -1 -25 -4 -44 -3 -50 3 -7 7 -11 7
-11 1 0 -12 -73 -12 -82 1 -5 6 -8 4 -8 -5 0 -13 -1 -13 -10 0 -5 8 -10 11
-10 5 0 -11 -71 -12 -89 -1 -6 4 -11 1 -11 -6 0 -9 -3 -9 -10 2 -5 8 -10 11
-10 5 0 -6 -32 -10 -75 -10 -41 0 -75 3 -75 6 0 4 -18 3 -39 -1 -25 -4 -44 -3
-50 3 -7 7 -11 7 -11 1 0 -12 -73 -12 -82 1 -5 6 -8 4 -8 -5 0 -13 -1 -13 -10
0 -5 8 -10 11 -10 5 0 -11 -71 -12 -89 -1 -6 4 -11 1 -11 -6 0 -9 -3 -9 -10 2
-5 8 -10 11 -10 5 0 -6 -32 -10 -75 -10 -41 0 -75 3 -75 6 0 4 -18 3 -39 -1
-21 -4 -46 -3 -55 2 -9 5 -16 5 -16 1z"/>
<path d="M5704 6996 c-3 -8 -14 -13 -25 -11 -10 2 -19 0 -19 -6 0 -5 -7 -9
-15 -9 -8 0 -15 -4 -15 -10 0 -5 -3 -9 -8 -7 -11 3 -62 -39 -62 -53 0 -6 -3
-9 -7 -7 -13 8 -33 -19 -33 -44 0 -5 -5 -7 -12 -3 -8 5 -9 2 -5 -9 3 -9 0 -22
-7 -29 -7 -8 -12 -21 -10 -31 1 -9 -1 -19 -5 -21 -12 -8 -5 -150 7 -154 6 -2
8 -10 5 -18 -3 -8 0 -14 7 -14 6 0 9 -4 5 -9 -3 -5 2 -16 10 -24 8 -9 15 -19
15 -22 0 -13 96 -96 103 -89 2 2 12 -5 22 -16 10 -11 25 -20 34 -20 9 0 27 -7
39 -16 12 -8 22 -12 22 -9 0 3 10 0 23 -7 12 -7 24 -12 27 -13 20 -1 130 -58
130 -67 0 -6 3 -8 7 -5 10 11 58 -65 57 -90 -1 -13 4 -23 10 -23 6 0 4 -5 -4
-10 -12 -8 -12 -10 -1 -10 11 0 11 -3 0 -17 -12 -14 -12 -15 -1 -9 11 7 12 4
3 -13 -7 -11 -9 -21 -5 -21 3 0 1 -6 -5 -13 -6 -8 -9 -16 -6 -19 3 -3 -8 -19
-24 -36 -16 -16 -28 -33 -25 -36 2 -3 1 -4 -2 -1 -4 2 -19 -2 -35 -10 -19 -10
-30 -11 -34 -4 -5 7 -11 6 -21 -2 -8 -6 -14 -8 -14 -4 0 4 -7 2 -15 -5 -8 -7
-15 -9 -15 -4 0 5 -17 10 -37 12 -20 1 -42 7 -48 12 -7 5 -15 7 -18 3 -4 -3
-7 -1 -7 6 0 7 -3 10 -7 8 -5 -2 -18 7 -30 20 -12 13 -19 23 -16 23 4 0 -2 6
-13 14 -10 8 -16 18 -12 22 4 4 3 13 -4 21 -6 8 -12 26 -14 41 -1 15 -2 32 -3
38 -1 7 -27 11 -73 10 -70 -1 -71 -2 -72 -29 -1 -15 1 -27 5 -27 4 0 5 -8 2
-19 -3 -10 0 -22 6 -25 5 -4 8 -13 4 -21 -3 -8 0 -15 6 -15 6 0 10 -3 9 -7 -4
-18 36 -80 62 -98 16 -11 26 -23 24 -27 -3 -4 1 -8 8 -8 7 0 24 -9 38 -20 14
-11 33 -20 42 -20 9 0 18 -4 20 -10 2 -5 20 -10 41 -12 20 -1 37 -5 37 -8 0
-6 97 -4 150 3 36 4 140 54 140 66 0 6 4 10 9 8 17 -4 62 60 87 128 10 25 13
185 4 185 -4 0 -7 7 -8 15 -1 8 -3 22 -4 30 -1 8 -5 15 -10 15 -4 0 -8 6 -8
13 0 7 -9 23 -20 35 -11 12 -20 27 -20 33 0 7 -3 10 -6 6 -3 -3 -19 7 -36 21
-16 15 -32 25 -35 24 -3 -2 -9 1 -12 6 -10 15 -121 63 -132 57 -5 -4 -12 1
-15 9 -3 9 -9 14 -14 11 -11 -7 -122 53 -146 79 -29 30 -44 60 -44 86 0 14 -4
19 -12 14 -10 -6 -10 -4 0 8 9 12 10 18 2 23 -8 5 -8 11 0 20 7 8 9 19 5 25
-3 5 -1 10 4 10 6 0 11 8 11 18 0 19 55 81 74 83 6 1 17 1 24 0 6 -1 12 2 12
8 0 5 14 8 30 6 20 -3 28 0 24 6 -4 7 1 7 15 0 12 -7 26 -9 31 -6 6 3 10 1 10
-5 0 -6 4 -8 10 -5 25 15 92 -45 111 -100 8 -22 18 -43 24 -47 7 -5 6 -8 -1
-8 -15 0 -10 -40 6 -50 7 -4 24 -6 37 -4 18 4 23 1 17 -8 -5 -8 -1 -7 11 2 21
17 24 17 36 -2 7 -10 9 -10 9 0 0 7 4 11 9 8 20 -12 23 45 5 88 -5 13 -4 17 4
12 6 -4 4 8 -6 26 -9 18 -20 35 -25 36 -4 2 -5 7 -2 12 2 4 -6 19 -20 34 -13
14 -21 26 -18 26 13 0 -53 52 -92 73 -40 21 -52 25 -90 32 -11 2 -20 4 -20 5
0 6 -128 4 -132 -2 -2 -5 -9 -8 -14 -8 -6 0 -7 5 -4 10 3 6 4 10 0 10 -3 0 -8
-6 -11 -14z"/>
<path d="M2110 6989 c0 -6 -7 -8 -16 -5 -9 4 -24 4 -33 1 -14 -4 -17 -19 -16
-86 0 -44 -3 -83 -8 -86 -4 -2 -4 -10 0 -16 12 -19 12 -77 -1 -77 -8 0 -8 -2
0 -8 13 -8 13 -50 0 -71 -6 -9 -5 -12 2 -7 7 4 10 -1 9 -14 -1 -11 -6 -20 -12
-20 -7 0 -7 -3 1 -8 5 -4 10 -29 10 -57 0 -27 -5 -53 -10 -57 -8 -5 -7 -8 0
-8 12 0 13 -118 1 -137 -4 -6 -3 -13 1 -17 12 -12 11 -76 -2 -76 -8 0 -8 -2 0
-8 13 -8 13 -50 0 -71 -6 -9 -5 -12 2 -7 7 4 10 -1 9 -14 -1 -11 -6 -20 -12
-20 -7 0 -7 -3 0 -8 14 -10 15 -112 1 -112 -8 0 -8 -2 0 -8 6 -4 10 -36 10
-77 l-1 -70 298 -1 c267 -1 297 0 298 15 5 57 2 79 -10 98 -7 13 -18 20 -25
16 -18 -12 -116 -11 -116 1 0 7 -3 6 -8 -1 -8 -12 -29 -13 -49 0 -6 4 -14 3
-18 -2 -7 -13 -45 -10 -45 4 0 5 -4 5 -8 -2 -8 -12 -29 -13 -49 0 -6 4 -14 3
-17 -2 -3 -4 -17 -8 -31 -8 -15 0 -22 4 -18 11 4 6 -1 4 -12 -4 -21 -17 -24
-17 -36 2 -5 7 -9 235 -9 506 0 415 -2 496 -14 508 -9 9 -17 10 -21 4 -4 -7
-13 -7 -26 0 -14 8 -19 7 -19 -1z"/>
<path d="M3595 6990 c-4 -6 -13 -9 -21 -6 -12 5 -32 -24 -38 -54 -1 -3 -5 -11
-9 -17 -5 -7 -5 -13 -1 -13 3 0 1 -7 -6 -15 -6 -8 -9 -19 -5 -25 3 -5 1 -10
-6 -10 -7 0 -9 -3 -6 -7 4 -3 1 -13 -6 -21 -10 -13 -9 -14 1 -8 10 6 11 4 4
-10 -26 -51 -51 -125 -54 -161 -1 -7 -5 -13 -10 -13 -5 0 -6 -4 -3 -10 3 -5 2
-10 -4 -10 -6 0 -8 -7 -5 -15 4 -8 2 -21 -3 -28 -11 -13 -35 -95 -31 -100 2
-2 -3 -11 -10 -20 -8 -9 -11 -21 -8 -26 4 -5 2 -12 -4 -16 -6 -4 -8 -11 -5
-16 4 -5 1 -9 -5 -9 -7 0 -10 -6 -7 -12 2 -7 -2 -21 -11 -30 -10 -13 -11 -18
-3 -18 9 0 8 -5 -3 -15 -8 -9 -12 -23 -9 -32 4 -10 2 -14 -4 -10 -7 4 -10 0
-8 -10 1 -10 0 -22 -4 -28 -3 -5 -6 -12 -7 -15 0 -3 -3 -12 -6 -20 -3 -8 -11
-35 -18 -60 -7 -25 -14 -51 -16 -58 -2 -7 -8 -10 -14 -7 -5 3 -8 0 -5 -7 3 -7
-8 -55 -25 -106 -16 -51 -30 -97 -30 -103 0 -6 28 -9 70 -8 39 1 70 6 70 11 0
5 5 6 10 3 6 -4 9 -3 8 2 -4 14 25 132 32 128 3 -2 7 13 8 33 2 20 7 39 13 43
6 3 9 10 8 15 -1 5 1 21 5 36 l8 27 94 -2 c57 -1 94 2 94 8 0 7 3 7 8 0 4 -5
30 -10 57 -10 28 0 53 5 57 10 5 7 8 7 8 0 0 -5 18 -9 40 -9 21 1 39 -1 38 -5
-3 -13 15 -77 26 -90 6 -8 10 -15 8 -15 -3 -1 5 -46 14 -74 2 -7 4 -16 5 -20
0 -4 6 -13 12 -21 10 -12 9 -13 -3 -6 -9 5 -7 -1 5 -15 11 -13 14 -20 7 -16
-11 7 -11 4 0 -14 11 -18 21 -21 61 -18 26 2 49 -1 51 -7 3 -5 5 -5 5 2 1 7 7
10 15 7 20 -8 30 14 16 31 -7 8 -9 15 -5 15 4 0 3 6 -3 13 -6 7 -12 26 -14 42
-2 17 -9 36 -15 43 -7 7 -14 22 -14 33 -2 27 -3 33 -11 45 -4 6 -9 23 -12 39
-3 16 -9 31 -14 34 -5 3 -8 14 -6 23 1 10 -2 20 -6 23 -5 3 -7 12 -3 20 3 8 0
15 -6 15 -7 0 -11 6 -10 13 2 13 -7 41 -22 70 -5 10 -7 22 -4 27 4 6 1 10 -4
10 -6 0 -10 3 -10 8 3 14 -14 72 -22 78 -4 2 -6 11 -2 19 3 8 0 15 -7 15 -6 0
-9 4 -5 10 3 5 1 17 -4 27 -16 30 -41 115 -36 123 3 5 1 10 -4 12 -5 1 -11 12
-13 23 -1 11 -6 22 -10 25 -4 3 -8 17 -10 32 -2 15 -7 30 -11 34 -4 4 -7 16
-7 26 0 10 -5 18 -11 18 -8 0 -8 5 1 15 10 12 9 16 -3 21 -9 3 -13 12 -10 20
3 8 1 14 -4 14 -7 0 -13 22 -16 67 0 7 -4 10 -8 7 -4 -2 -9 8 -11 23 -3 24 -7
27 -38 28 -19 0 -38 4 -41 9 -4 4 -10 3 -14 -4z m39 -260 c2 -14 6 -27 7 -30
1 -3 3 -9 4 -15 1 -5 7 -23 13 -38 7 -16 12 -37 12 -48 0 -10 4 -19 8 -19 4 0
9 -8 10 -17 2 -21 7 -43 14 -63 12 -32 38 -123 38 -130 0 -5 5 -21 11 -37 24
-59 13 -91 -20 -60 -10 9 -12 9 -7 0 5 -9 -3 -11 -30 -8 -20 3 -41 8 -48 12
-6 4 -5 -1 3 -10 12 -16 12 -17 -5 -11 -10 4 -25 12 -33 18 -11 8 -13 8 -8 0
4 -7 -5 -11 -23 -11 -18 0 -27 4 -23 11 5 8 3 8 -8 0 -17 -13 -66 -11 -80 3
-7 7 -6 15 3 24 7 8 14 23 16 34 1 11 3 28 4 38 1 9 6 17 10 17 4 0 5 9 3 20
-2 11 0 20 6 20 5 0 8 3 8 8 -1 4 0 10 1 15 1 4 3 10 4 15 12 51 31 112 35
112 3 0 7 15 8 33 1 17 7 41 12 52 21 45 28 66 30 95 2 21 20 0 25 -30z"/>
<path d="M6910 6993 c0 -5 -24 -8 -54 -7 -34 1 -56 -3 -58 -10 -2 -6 -4 -263
-3 -571 l0 -560 310 0 310 0 0 40 c0 22 4 46 9 54 6 10 6 12 -2 7 -7 -4 -12
-1 -12 7 0 10 -9 13 -32 11 -18 -2 -35 1 -40 8 -4 8 -8 8 -8 2 0 -12 -69 -13
-89 0 -10 6 -12 5 -7 -2 9 -14 -46 -11 -56 3 -5 6 -8 6 -8 -1 0 -6 -16 -11
-35 -11 -22 0 -32 4 -28 11 4 6 -1 4 -12 -4 -10 -8 -19 -15 -20 -15 -1 0 -10
7 -20 15 -11 9 -16 10 -11 3 4 -8 1 -13 -8 -13 -9 0 -16 6 -16 13 0 7 -3 8 -8
2 -9 -12 -65 -18 -57 -6 3 5 -2 12 -11 15 -9 3 -12 11 -8 18 12 20 14 58 2 58
-6 0 -5 6 2 15 10 12 10 19 2 27 -7 7 -8 17 -2 28 5 9 5 22 0 30 -5 8 -4 22 2
34 8 15 8 21 -1 24 -9 3 -9 7 0 18 8 10 8 18 0 27 -8 10 -7 17 2 27 10 10 9
11 -1 5 -12 -6 -12 -3 -2 15 9 17 9 24 1 30 -9 5 -9 9 1 17 20 15 50 24 43 13
-4 -6 2 -7 17 -2 23 8 70 7 93 -2 6 -2 18 0 25 4 7 5 24 4 37 -1 17 -6 22 -6
17 2 -5 8 -1 8 14 0 13 -7 23 -7 27 -1 3 6 15 6 29 0 13 -5 26 -7 28 -4 3 2
20 5 39 7 32 2 34 5 37 41 7 86 18 82 -207 81 l-199 0 3 23 c1 12 -1 24 -5 27
-12 7 1 65 14 59 6 -3 3 1 -6 9 -13 10 -14 17 -6 25 8 8 8 15 0 24 -6 8 -7 19
-3 26 4 6 6 27 4 44 -6 51 -6 52 2 71 4 11 3 17 -5 17 -9 0 -10 3 -1 13 6 8 8
17 4 20 -8 9 -13 8 237 11 113 2 210 4 217 4 7 1 11 22 10 60 -2 50 -5 57 -22
57 -11 0 -23 5 -27 10 -5 6 -8 6 -8 -1 0 -12 -49 -12 -68 0 -7 4 -12 3 -12 -2
0 -13 -63 -10 -72 3 -5 6 -8 6 -8 -1 0 -12 -49 -12 -68 0 -7 4 -12 3 -12 -1 0
-10 -173 -9 -189 1 -6 4 -11 3 -11 -1z"/>
<path d="M8270 6993 c0 -5 -47 -8 -105 -7 l-104 1 2 -68 c1 -41 -2 -69 -8 -69
-6 0 -6 -3 0 -8 10 -6 11 -20 5 -39 -1 -5 -1 -12 0 -18 7 -32 6 -56 -2 -61 -5
-3 -4 -11 2 -19 7 -9 8 -15 1 -19 -6 -4 -8 -13 -5 -20 10 -26 9 -96 -1 -96 -5
0 -3 -5 5 -10 13 -9 13 -10 0 -10 -9 0 -11 -3 -5 -8 12 -8 12 -52 1 -70 -4 -6
-3 -12 3 -12 10 0 9 -46 -2 -57 -4 -3 -2 -12 4 -19 6 -8 6 -14 0 -18 -5 -4 -6
-18 -2 -34 4 -15 4 -39 0 -54 -4 -16 -3 -30 2 -34 5 -3 9 -10 9 -15 0 -6 -4
-8 -9 -5 -8 5 -5 -64 4 -72 2 -2 -1 -17 -5 -33 -5 -17 -5 -31 1 -34 5 -4 9
-11 9 -16 0 -6 -4 -8 -9 -5 -4 3 -6 -9 -4 -27 7 -57 7 -112 -1 -125 -4 -7 -2
-12 3 -12 13 0 10 -22 -4 -32 -6 -5 -5 -8 3 -8 7 0 10 -4 7 -10 -4 -6 23 -9
70 -9 l77 1 -4 39 c-2 21 0 39 4 39 3 0 3 14 -2 30 -5 17 -5 30 0 30 5 0 5 13
0 30 -5 17 -5 30 -1 30 5 0 5 18 1 40 -5 27 -4 40 4 40 6 0 4 5 -4 10 -8 5
-10 10 -4 10 8 0 9 13 4 40 -4 22 -4 40 1 40 4 0 4 14 -1 30 -5 19 -5 30 1 30
6 0 7 5 4 10 -3 6 3 10 15 10 13 0 19 4 14 12 -5 7 -3 8 7 2 22 -14 120 -15
112 -1 -4 7 0 6 10 -1 9 -8 20 -11 26 -8 9 6 21 -15 28 -49 2 -10 8 -22 14
-26 6 -3 11 -12 13 -20 1 -8 9 -29 19 -48 9 -19 17 -40 17 -48 0 -7 5 -13 10
-13 6 0 10 -6 10 -13 0 -8 7 -28 15 -45 9 -17 18 -41 20 -54 3 -13 9 -24 15
-26 5 -2 10 -12 10 -22 0 -10 5 -22 11 -25 6 -4 8 -13 5 -20 -2 -7 2 -16 10
-19 9 -3 13 -10 9 -15 -3 -5 3 -12 12 -15 28 -8 142 -6 148 3 2 5 -6 30 -20
56 -13 27 -22 52 -19 57 3 4 0 8 -5 8 -6 0 -11 7 -11 15 0 8 -5 15 -10 15 -6
0 -10 6 -8 13 1 6 -8 31 -20 55 -13 23 -20 48 -16 54 4 6 3 8 -3 5 -10 -6 -30
32 -39 72 -1 8 -6 17 -11 20 -4 3 -10 15 -11 26 -2 11 -7 22 -11 25 -3 3 -12
17 -19 33 -10 23 -9 30 7 46 11 11 22 17 25 14 3 -4 6 -1 6 6 0 7 4 10 9 6 5
-3 12 4 16 15 3 11 13 20 21 20 8 0 13 4 10 9 -3 4 3 16 14 26 11 10 17 22 14
26 -3 5 0 9 5 9 6 0 11 4 11 9 0 5 5 22 11 38 15 37 20 175 6 166 -6 -4 -7 -1
-1 8 13 21 14 39 1 39 -5 0 -8 3 -4 6 3 4 0 22 -9 42 -8 19 -12 37 -10 39 9
10 -91 113 -110 113 -8 0 -14 5 -14 10 0 6 -8 10 -18 10 -10 0 -28 7 -40 16
-13 9 -22 11 -22 4 0 -7 -5 -8 -12 -3 -7 4 -52 8 -99 9 -47 0 -91 4 -97 8 -7
4 -12 3 -12 -1z m179 -139 c9 -4 22 -8 29 -10 18 -3 66 -48 70 -64 2 -8 7 -17
10 -20 4 -3 9 -14 10 -25 2 -11 8 -24 13 -29 5 -6 4 -15 -2 -23 -9 -9 -8 -13
0 -13 7 0 9 -5 5 -11 -4 -6 -8 -35 -10 -63 -2 -28 -8 -52 -14 -54 -5 -2 -10
-10 -10 -18 0 -8 -5 -14 -12 -14 -6 0 -9 -3 -5 -6 11 -11 -57 -61 -75 -56 -5
1 -8 -2 -8 -7 0 -4 -17 -7 -37 -7 -21 1 -48 -1 -60 -6 -13 -4 -23 -3 -25 4 -3
8 -11 7 -28 -2 -17 -9 -25 -10 -28 -2 -2 7 -15 9 -32 6 -28 -6 -28 -6 -32 50
-1 31 -1 56 2 56 3 0 3 32 0 70 -3 44 -1 70 5 70 5 0 3 5 -5 10 -8 5 -10 10
-5 10 6 0 8 26 5 70 -3 39 -2 70 2 70 5 0 7 3 7 8 -1 4 -1 9 0 12 2 8 211 2
230 -6z"/>
<path d="M9466 6993 c-4 -4 -23 -7 -43 -8 -31 0 -38 -4 -44 -26 -3 -15 -3 -33
2 -40 4 -8 3 -19 -3 -26 -8 -10 -7 -13 3 -13 11 0 11 -2 -1 -10 -8 -5 -10 -10
-4 -10 11 0 10 -52 -1 -70 -3 -5 1 -10 7 -13 10 -3 10 -7 -1 -20 -7 -10 -9
-17 -4 -17 6 0 8 -12 6 -27 -2 -16 -4 -39 -3 -53 5 -95 5 -112 -2 -116 -4 -3
-4 -13 2 -23 6 -12 5 -22 -2 -29 -9 -9 -8 -12 3 -12 12 0 12 -2 -1 -10 -8 -5
-10 -10 -5 -10 11 0 13 -65 2 -76 -3 -4 -2 -15 3 -25 7 -12 6 -20 -1 -25 -8
-4 -7 -9 2 -15 11 -7 11 -9 -1 -9 -13 0 -13 -2 -1 -9 12 -8 12 -12 2 -25 -8
-9 -9 -16 -4 -16 6 0 8 -12 6 -27 -4 -26 -4 -44 1 -103 1 -14 -2 -35 -6 -47
-4 -13 -4 -23 0 -23 9 0 9 -61 0 -76 -4 -5 -3 -16 2 -24 5 -9 5 -19 -2 -27 -8
-10 -7 -13 3 -13 11 0 11 -2 -1 -10 -11 -7 -11 -10 -2 -10 10 0 10 -5 2 -20
-8 -14 -8 -20 0 -20 6 0 9 -4 6 -9 -4 -6 122 -9 309 -9 301 0 314 1 305 19 -7
12 -7 20 0 24 8 5 7 11 -1 21 -9 11 -9 14 1 14 9 0 9 4 -1 17 -12 14 -12 16 1
9 8 -4 7 -1 -3 8 -11 8 -25 12 -33 9 -8 -3 -14 1 -14 8 0 9 -3 10 -8 3 -4 -6
-20 -10 -37 -10 -16 0 -33 4 -37 10 -5 7 -8 7 -8 1 0 -14 -38 -17 -45 -4 -4 5
-12 6 -18 2 -20 -13 -41 -12 -49 0 -4 7 -8 7 -8 2 0 -14 -38 -17 -45 -4 -4 5
-12 6 -18 2 -20 -13 -41 -12 -49 0 -5 8 -8 8 -8 1 0 -12 -45 -13 -56 -1 -4 4
-13 2 -21 -4 -10 -9 -13 -8 -14 2 -4 54 -3 65 6 72 7 6 6 10 -1 13 -7 3 -9 18
-4 45 6 29 4 44 -7 55 -10 9 -10 14 -3 14 8 0 11 14 8 40 -2 22 1 40 6 40 6 0
6 3 1 9 -6 6 -8 34 -7 64 4 52 5 54 30 51 35 -5 76 -5 135 -1 27 1 51 -1 54
-6 3 -5 9 -3 14 4 7 11 9 11 9 1 0 -8 5 -10 12 -6 18 11 48 12 48 2 0 -5 8 -4
18 1 11 6 24 6 35 0 11 -7 17 -6 17 1 0 5 3 9 8 9 22 -4 27 6 26 51 0 27 -4
53 -8 57 -4 4 -96 8 -204 8 -189 1 -197 2 -195 21 8 78 5 116 -8 125 -11 7
-11 9 0 9 9 0 12 11 9 40 -2 22 0 40 5 40 4 0 5 5 1 11 -9 16 -11 109 -1 109
5 0 6 3 4 8 -7 10 415 8 433 -3 8 -4 12 -5 8 0 -4 4 -1 13 5 20 7 7 12 25 11
41 -1 16 -3 38 -3 50 -1 19 -7 20 -83 19 -46 0 -91 3 -100 8 -10 4 -18 4 -18
0 0 -10 -173 -8 -189 1 -6 4 -11 3 -11 -2 0 -11 -50 -9 -68 1 -5 4 -12 1 -15
-5 -3 -10 -7 -10 -19 -1 -8 7 -18 10 -22 6z"/>
<path d="M10750 6992 c0 -5 -16 -8 -36 -7 -52 3 -74 -4 -67 -23 5 -11 2 -13
-8 -8 -8 4 -6 1 3 -7 10 -8 15 -16 13 -19 -8 -7 -13 -98 -6 -94 3 2 6 -20 6
-49 0 -29 -3 -51 -6 -49 -4 2 -10 -3 -13 -12 -3 -8 -2 -13 3 -10 5 3 11 -4 14
-15 4 -16 2 -19 -10 -15 -13 5 -14 4 -4 -8 7 -8 10 -19 7 -25 -3 -5 0 -12 6
-14 7 -3 9 -6 3 -6 -11 -1 -12 -62 -1 -79 4 -7 3 -12 -3 -12 -7 0 -7 -8 -1
-26 6 -14 6 -23 1 -20 -4 3 -8 -8 -7 -24 1 -17 6 -30 11 -30 7 0 7 -3 0 -8
-13 -10 -15 -83 -2 -75 6 3 7 1 3 -5 -4 -7 -7 -36 -8 -64 0 -29 -5 -59 -11
-67 -10 -12 -9 -13 1 -7 11 6 13 1 11 -20 -2 -16 0 -35 4 -42 5 -6 4 -12 -2
-12 -6 0 -8 -12 -5 -30 4 -19 1 -36 -7 -47 -12 -14 -12 -16 0 -8 11 6 13 1 9
-24 -3 -18 -1 -34 4 -37 5 -3 1 -13 -9 -21 -10 -8 -12 -12 -5 -8 9 5 11 -6 8
-44 -2 -28 0 -48 4 -46 5 3 6 -4 3 -15 -5 -18 -1 -19 68 -17 l74 2 0 428 c0
235 2 427 5 427 10 0 40 -57 33 -64 -3 -3 -1 -6 5 -6 7 0 12 -7 12 -15 0 -8 5
-15 11 -15 5 0 8 -4 4 -9 -3 -5 -1 -12 5 -16 6 -4 8 -10 5 -15 -3 -4 2 -11 11
-14 9 -3 14 -13 11 -20 -3 -8 1 -17 9 -20 9 -3 14 -12 12 -18 -3 -7 4 -21 14
-32 10 -11 18 -27 18 -37 0 -9 7 -20 16 -23 9 -4 14 -9 11 -13 -4 -3 9 -34 28
-68 19 -34 32 -65 28 -68 -3 -4 -1 -7 5 -7 6 0 16 -16 23 -35 7 -19 17 -35 21
-35 4 0 8 -6 8 -14 0 -8 6 -21 13 -28 7 -7 13 -15 13 -18 0 -13 30 -70 37 -70
5 0 6 -4 2 -9 -3 -5 2 -17 11 -25 8 -9 12 -16 7 -16 -4 0 -3 -4 2 -8 6 -4 26
-37 44 -75 l34 -67 61 1 c53 1 126 17 87 18 -10 1 -11 4 -2 15 9 11 9 16 0 21
-8 6 -7 10 2 16 10 6 11 9 2 9 -7 0 -13 5 -13 11 0 5 6 7 13 3 9 -6 9 -4 -1 8
-9 12 -10 18 -2 23 8 5 8 11 1 19 -7 9 -7 16 1 24 9 9 9 12 -1 12 -10 0 -11 3
-2 14 9 11 9 16 0 21 -8 6 -7 10 2 16 10 6 11 9 2 9 -7 0 -13 5 -13 11 0 5 6
7 13 3 9 -6 9 -4 -1 8 -9 12 -10 18 -2 23 8 5 8 11 1 19 -7 9 -7 16 1 24 9 9
9 12 -1 12 -10 0 -11 3 -2 14 9 11 9 16 0 21 -8 6 -7 10 2 16 10 6 11 9 2 9
-7 0 -13 5 -13 11 0 5 6 7 13 3 9 -6 9 -5 0 7 -10 12 -10 18 -1 27 9 9 9 12
-1 12 -10 0 -11 3 -2 13 8 10 7 17 -1 25 -9 9 -9 12 3 12 12 0 12 2 0 9 -8 5
-10 14 -5 22 10 18 11 49 2 71 -5 10 -3 18 5 21 9 4 9 6 0 6 -7 1 -13 6 -13
12 0 5 6 7 13 3 9 -6 9 -5 0 7 -10 12 -10 18 -1 27 9 9 9 12 -1 12 -10 0 -11
3 -2 14 9 11 9 16 0 21 -8 6 -7 10 2 16 11 7 11 9 1 9 -9 0 -10 5 -3 18 6 11
6 24 1 32 -6 9 -5 17 3 22 9 6 9 8 0 8 -9 0 -10 7 -3 24 5 15 5 27 -3 35 -8 8
-7 11 4 11 12 0 12 2 -1 10 -13 9 -13 10 0 10 12 0 12 2 1 9 -9 6 -10 10 -2
16 9 5 9 10 0 21 -9 11 -8 14 2 14 12 0 12 2 0 9 -8 5 -10 14 -5 22 11 18 11
49 1 72 -5 11 -3 17 5 17 9 0 9 3 -2 10 -13 9 -13 10 0 10 12 1 11 3 -3 11 -9
5 -22 7 -27 4 -6 -3 -10 0 -10 7 0 8 -3 9 -8 3 -8 -12 -62 -14 -62 -2 0 4 -8
2 -18 -4 -18 -11 -19 -31 -18 -338 1 -179 -2 -336 -6 -347 -4 -12 -4 -25 0
-28 11 -12 10 -36 -1 -36 -8 0 -8 -3 -2 -8 6 -4 10 -26 11 -49 1 -32 -3 -43
-18 -46 -10 -3 -16 -1 -13 3 5 8 -14 60 -25 70 -3 3 -17 29 -30 58 -14 28 -28
52 -32 52 -5 0 -8 9 -8 19 0 11 -5 21 -11 23 -5 2 -11 10 -12 19 -2 9 -11 28
-20 42 -10 15 -14 27 -11 27 4 0 1 8 -8 18 -8 9 -29 49 -48 87 -19 39 -42 82
-53 98 -10 15 -15 27 -10 27 4 0 3 4 -4 8 -6 4 -13 16 -15 27 -3 20 -10 31
-36 60 -7 8 -13 18 -13 22 0 13 -63 138 -71 141 -5 2 -8 10 -8 18 0 7 -13 20
-30 29 -16 9 -30 12 -30 7z"/>
<path d="M12388 6982 c-13 -2 -17 -11 -14 -32 2 -16 -1 -27 -5 -24 -5 3 -9 -1
-10 -8 -2 -31 -8 -51 -19 -58 -6 -4 -8 -14 -5 -22 3 -8 0 -22 -7 -29 -7 -8
-13 -25 -13 -39 0 -14 -3 -28 -8 -31 -4 -3 -9 -15 -12 -28 -6 -34 -28 -94 -40
-110 -7 -11 -7 -13 3 -7 7 4 5 -6 -6 -26 -10 -18 -18 -41 -16 -51 1 -9 -2 -17
-7 -17 -6 0 -8 -4 -4 -9 3 -5 1 -12 -4 -15 -8 -6 -26 -73 -23 -88 1 -5 -2 -8
-7 -8 -5 0 -12 -7 -15 -16 -3 -8 -2 -12 4 -9 5 3 1 -14 -10 -39 -11 -26 -17
-46 -14 -46 2 0 -2 -13 -11 -30 -9 -16 -13 -30 -9 -30 4 0 1 -6 -5 -13 -6 -8
-8 -17 -4 -20 3 -4 1 -7 -5 -7 -6 0 -9 -9 -7 -20 2 -11 0 -20 -4 -20 -4 0 -8
-7 -9 -15 -1 -8 -3 -22 -4 -30 -1 -8 -4 -15 -8 -15 -7 0 -9 -9 -12 -54 -1 -14
-6 -22 -10 -20 -8 5 -12 -10 -9 -33 1 -7 -2 -13 -7 -13 -5 0 -9 -6 -10 -12 -1
-27 -12 -61 -22 -73 -16 -19 -1 -24 66 -23 77 0 93 5 89 26 -1 9 4 29 12 45 7
15 11 27 7 27 -4 0 -1 6 5 13 6 8 8 17 4 20 -3 4 -2 7 3 7 5 0 10 8 11 18 1
17 10 55 13 60 2 1 3 5 4 10 1 4 5 13 9 20 5 7 3 12 -3 12 -7 0 -5 7 4 16 9 8
16 21 16 27 0 8 3 8 8 2 4 -5 36 -10 72 -10 36 0 68 5 72 10 5 7 8 7 8 0 0 -5
25 -10 55 -10 30 0 55 5 55 10 0 7 3 7 8 0 4 -5 30 -10 57 -10 41 0 50 -3 49
-17 -1 -10 3 -18 8 -18 6 0 8 -7 4 -15 -3 -8 -1 -15 5 -15 6 0 9 -6 6 -14 -3
-7 0 -19 6 -25 6 -6 7 -11 1 -11 -5 0 -4 -4 3 -8 7 -4 13 -22 15 -40 1 -18 6
-32 11 -32 5 0 7 -9 4 -20 -3 -11 -1 -20 4 -20 5 0 9 -3 8 -7 -1 -5 2 -18 6
-30 7 -21 13 -23 81 -21 70 2 74 3 67 22 -3 12 -6 29 -5 39 0 9 -3 15 -9 12
-5 -4 -9 5 -9 19 0 14 -4 28 -10 31 -5 3 -10 18 -10 33 0 15 -7 36 -15 46 -8
10 -12 23 -9 28 3 5 1 14 -4 21 -5 7 -13 26 -17 42 -11 40 -12 44 -15 53 -1 4
-2 11 -1 16 1 5 -3 12 -10 16 -6 4 -11 19 -11 34 0 14 -4 26 -8 26 -3 0 -7 7
-8 15 -1 8 -3 22 -4 30 -1 8 -4 15 -8 15 -4 0 -7 6 -7 13 -1 19 -7 42 -14 47
-4 3 -9 19 -10 35 -2 17 -7 32 -11 35 -4 3 -9 17 -11 30 -3 14 -10 37 -16 53
-6 15 -8 27 -5 27 3 0 -1 6 -9 14 -8 8 -13 26 -12 40 2 14 -1 26 -6 26 -5 0
-9 11 -9 25 0 14 -5 25 -11 25 -6 0 -9 6 -6 14 3 7 2 17 -3 22 -5 5 -11 24
-15 42 -3 18 -9 41 -14 50 -13 24 -36 106 -33 115 1 4 -3 7 -9 7 -5 0 -7 5 -4
10 3 6 0 11 -7 12 -30 3 -104 4 -120 0z m67 -233 c-4 -5 -2 -9 3 -9 8 0 10 -6
14 -47 0 -10 5 -20 9 -23 4 -3 9 -17 11 -32 2 -15 7 -30 11 -34 4 -4 7 -18 7
-31 0 -12 3 -23 8 -23 4 0 8 -14 9 -32 1 -17 6 -34 11 -37 4 -3 7 -13 7 -21
-1 -8 6 -24 14 -34 14 -16 14 -18 1 -11 -13 7 -13 6 -2 -7 7 -9 14 -29 15 -46
1 -16 5 -28 8 -26 4 2 9 -12 11 -32 4 -31 2 -35 -15 -30 -15 4 -16 2 -6 -10
10 -12 9 -13 -7 -8 -10 4 -25 12 -33 18 -11 8 -13 8 -8 -1 6 -9 -2 -11 -29 -8
-20 3 -41 8 -48 12 -6 4 -5 -1 3 -10 12 -16 12 -17 -5 -11 -10 4 -25 12 -33
18 -11 8 -13 8 -8 -1 8 -13 -30 -12 -52 2 -10 5 -12 4 -7 -3 7 -12 -35 -18
-46 -6 -8 7 3 45 11 40 4 -3 6 9 5 25 -1 16 3 35 10 42 6 6 11 22 10 35 -1 13
4 26 11 28 7 3 11 16 9 30 -1 13 2 24 7 24 6 0 7 5 4 10 -3 6 0 10 7 11 9 0 9
2 1 5 -8 4 -8 12 2 31 8 15 12 30 9 35 -3 4 0 8 6 8 6 0 9 4 6 9 -8 12 4 42
13 37 4 -3 6 8 5 25 -1 16 1 29 5 29 4 0 8 8 9 18 1 14 7 41 11 60 1 2 6 0 11
-3 6 -4 8 -11 5 -16z"/>
</g>
</svg>
